{"glyphs":{":":{"x_min":0,"x_max":250,"ha":250,"o":"m 126 355 q 137 354 141 340 q 146 327 154 314 q 162 302 162 293 q 162 278 151 261 l 149 261 q 146 261 144 265 q 125 257 116 243 q 104 251 98 254 q 94 270 94 288 q 94 295 89 303 q 83 311 83 315 l 83 318 q 90 326 94 335 z m 151 89 q 152 56 159 42 q 166 28 166 27 l 155 8 l 123 -12 q 112 -11 108 3 q 104 17 95 28 q 87 40 87 50 q 87 68 98 82 q 104 82 105 78 q 125 85 133 100 q 142 93 151 89 z"},"$":{"x_min":0,"x_max":408,"ha":408,"o":"m 348 681 q 352 664 352 649 q 352 621 329 621 q 325 621 315 623 q 300 645 272 645 q 259 645 250 636 q 241 628 235 582 q 229 536 229 470 q 229 400 231 394 q 233 387 258 370 q 347 309 347 227 q 347 171 306 109 q 266 46 241 41 q 211 33 203 12 q 196 -10 196 -70 q 196 -197 170 -212 q 153 -208 147 -203 q 140 -198 140 -186 q 140 -171 152 -107 q 167 -66 167 -20 q 167 -2 166 6 q 100 -34 64 -34 q 49 -34 49 -1 q 49 11 57 25 q 75 31 92 31 q 97 31 101 30 q 104 29 108 29 q 112 29 140 35 q 169 42 173 47 q 177 51 186 143 q 194 235 194 314 l 194 330 q 106 397 91 428 q 75 459 75 493 q 75 589 185 661 q 200 671 205 677 q 210 683 208 696 q 207 708 207 718 q 207 861 248 861 q 255 861 266 855 q 266 830 256 781 q 247 732 247 711 q 247 696 250 680 q 266 678 272 678 q 291 678 304 682 q 316 685 317 685 z m 198 414 q 205 559 205 624 q 205 630 198 630 q 154 591 137 566 q 120 541 120 512 q 120 459 187 411 z m 212 55 q 250 71 273 114 q 297 157 297 206 q 297 236 279 267 q 262 298 230 317 q 221 171 206 58 z"},"?":{"x_min":0,"x_max":336,"ha":336,"o":"m 161 683 q 189 711 200 711 q 206 711 220 698 l 256 664 q 279 643 287 617 q 296 592 296 578 q 296 539 274 498 q 252 457 214 408 q 176 359 155 322 q 134 285 134 261 q 134 233 153 211 q 171 189 176 182 l 176 180 q 176 175 170 166 q 165 158 164 152 q 148 150 145 143 q 143 142 141 142 q 139 142 137 148 q 130 139 122 139 q 113 139 107 147 q 102 154 96 188 q 90 221 90 231 q 90 262 107 299 q 124 337 171 400 q 218 463 229 494 q 241 524 241 551 q 241 563 239 574 q 237 584 222 609 q 197 629 161 667 z m 137 75 q 174 49 174 34 q 174 21 160 7 q 146 -7 134 -7 q 128 -7 109 7 q 90 21 90 33 l 90 36 q 109 52 110 55 q 119 72 137 75 z"},"<":{"x_min":0,"x_max":300,"ha":300,"o":"m 258 194 q 256 167 240 144 l 233 149 q 218 144 211 138 l 208 138 q 202 138 198 148 q 193 158 191 162 q 25 313 25 342 q 25 346 28 349 q 87 392 143 451 q 198 509 218 524 q 237 539 251 539 q 255 539 258 530 q 252 514 240 499 q 227 483 181 450 q 135 417 113 393 q 91 370 91 365 l 91 364 l 92 364 q 96 337 114 316 q 132 294 162 268 q 192 242 206 228 q 219 215 225 215 q 228 215 232 217 q 236 219 238 219 l 240 219 q 249 193 254 193 q 256 193 258 194 z"},"'":{"x_min":0,"x_max":250,"ha":250,"o":"m 104 417 q 100 425 100 428 q 100 435 124 489 q 147 543 161 570 q 175 597 187 625 q 199 653 213 671 q 228 688 258 688 q 266 688 266 682 q 266 681 264 671 q 141 444 141 438 q 127 415 112 415 q 110 415 104 417 z"},"=":{"x_min":0,"x_max":500,"ha":500,"o":"m 426 459 q 438 447 438 440 l 437 437 q 431 432 416 414 q 400 396 394 395 q 387 395 375 396 q 364 397 355 397 l 348 397 l 344 390 q 328 397 313 396 q 298 394 284 394 l 235 393 q 220 393 185 395 l 183 389 q 164 396 148 396 q 107 396 107 387 q 107 385 108 384 q 105 384 97 381 q 89 378 84 377 l 84 384 l 77 387 q 72 384 72 381 l 72 380 q 61 396 61 406 q 61 416 70 422 q 80 429 80 436 q 86 436 97 443 q 107 450 109 450 q 112 450 118 449 q 164 438 204 438 q 220 438 256 441 q 292 444 313 444 l 359 444 q 376 444 384 445 q 418 460 422 460 z m 427 305 q 437 292 437 281 q 437 270 428 263 q 419 256 419 249 q 413 249 404 243 q 395 237 390 235 q 324 247 295 247 q 277 247 241 244 q 205 240 187 240 l 141 241 q 124 241 115 240 q 83 226 77 226 q 74 226 67 233 q 61 240 61 245 l 62 248 q 91 283 97 286 q 102 290 112 290 q 118 290 128 289 q 138 287 143 287 q 155 287 155 296 q 168 290 180 290 q 184 290 192 291 q 199 292 203 292 l 228 291 l 264 292 q 276 292 314 290 l 316 296 q 337 290 350 290 q 392 290 392 299 l 391 302 l 392 302 q 395 302 403 305 q 411 308 415 309 l 415 302 q 415 298 421 298 q 427 298 427 305 z"},"a":{"x_min":0,"x_max":436,"ha":436,"o":"m 366 264 q 366 260 360 253 q 353 247 351 241 q 348 236 347 213 q 345 189 345 144 l 347 78 q 347 73 343 69 q 342 63 342 51 q 342 33 348 5 l 353 -21 l 352 -45 l 353 -66 q 318 -101 301 -101 q 298 -101 292 -98 q 285 -94 279 -94 l 276 -94 q 272 -81 272 -70 q 272 -46 283 -24 q 289 -17 291 -13 q 294 -9 294 16 q 294 44 288 44 q 287 44 282 42 q 277 40 271 40 l 267 40 q 261 36 260 30 q 254 30 196 8 q 167 -2 141 -2 q 112 -2 89 6 q 66 13 51 28 q 35 43 31 50 q 26 58 26 82 l 27 94 l 27 98 q 27 147 103 201 q 179 254 245 266 q 262 269 272 272 q 282 275 288 282 q 295 290 295 316 q 295 403 203 434 q 200 435 195 438 q 190 441 186 441 q 139 441 107 437 q 89 417 68 417 q 52 417 52 428 q 52 429 59 449 q 66 469 93 469 q 124 486 205 486 q 271 486 307 435 q 343 384 343 290 l 343 283 q 347 277 356 274 q 366 271 366 265 z m 270 91 q 301 132 301 165 q 301 185 291 208 q 281 232 251 232 q 193 232 157 203 l 145 203 q 70 162 70 115 q 70 83 101 60 q 132 38 173 38 q 184 38 214 47 q 244 57 270 82 z"},"L":{"x_min":0,"x_max":494,"ha":494,"o":"m 486 52 q 494 42 494 26 q 494 6 488 -3 q 482 -12 475 -12 q 469 -12 452 -9 q 435 -6 435 0 l 431 -7 l 428 -7 q 424 -7 419 -1 q 415 5 413 7 q 378 1 336 1 l 243 1 q 223 1 186 -1 q 172 -12 170 -12 l 169 -12 q 156 -4 132 -4 l 116 -5 q 113 -7 109 -12 q 100 -3 100 8 q 100 17 104 30 q 112 43 112 78 l 112 91 q 120 147 120 245 l 119 425 q 119 437 121 458 q 123 479 123 489 l 125 545 q 125 571 118 600 q 110 629 109 637 l 102 644 l 102 647 q 102 680 137 680 q 164 680 182 667 q 199 654 199 635 q 180 608 180 555 l 181 510 q 181 495 177 467 q 174 439 174 426 q 174 417 176 397 q 178 376 178 364 l 176 299 l 176 211 l 171 110 q 171 75 182 49 q 193 48 207 48 q 209 43 256 40 q 303 36 324 36 q 380 36 409 49 q 411 47 412 47 q 415 47 424 51 q 434 54 442 54 l 454 52 z"},"3":{"x_min":0,"x_max":485,"ha":485,"o":"m 456 647 q 456 634 403 599 q 397 596 393 583 q 389 571 381 565 q 364 553 350 537 q 285 465 208 411 q 191 399 191 397 q 191 395 197 391 q 204 388 207 386 q 223 388 231 388 q 257 388 315 366 q 373 344 402 302 q 430 259 430 195 q 430 138 371 70 q 312 2 197 2 l 142 5 q 130 5 119 -2 q 114 -3 100 -3 q 73 -3 40 6 q 29 18 29 45 q 29 49 32 60 q 35 71 43 71 q 44 71 50 69 l 49 68 q 49 65 58 66 q 66 68 72 68 q 75 68 81 66 q 86 64 90 64 q 106 64 112 61 q 160 37 215 37 q 274 37 302 49 q 330 61 349 101 q 368 142 368 190 q 368 259 322 296 q 276 333 189 333 q 165 333 162 332 l 124 320 q 111 308 99 302 q 99 312 94 314 l 91 306 q 74 317 74 331 q 74 343 85 360 q 96 376 111 379 q 119 398 152 406 q 240 458 291 511 q 342 564 342 591 q 342 622 280 622 q 209 622 144 606 q 79 590 75 590 q 66 590 60 601 q 53 612 53 629 q 53 664 85 664 q 84 659 109 658 q 134 658 156 655 q 177 653 205 653 q 273 653 339 660 q 343 677 355 677 q 360 677 364 667 q 389 684 406 684 q 419 684 438 676 q 456 668 456 652 z"},";":{"x_min":0,"x_max":250,"ha":250,"o":"m 124 355 q 135 354 139 340 q 144 326 152 314 q 160 303 160 294 q 160 278 149 261 l 147 261 q 144 261 142 265 q 123 257 114 243 q 108 248 96 254 q 92 270 92 288 q 92 295 86 303 q 81 311 81 315 l 81 318 q 88 326 92 335 z m 54 -130 q 50 -124 50 -119 l 50 -116 q 61 -62 83 8 q 105 78 115 85 q 125 92 135 92 q 148 92 157 84 q 166 76 166 65 q 166 61 154 31 q 141 2 121 -28 q 101 -58 96 -81 q 92 -91 84 -103 q 76 -115 72 -122 q 68 -130 54 -130 z"},"J":{"x_min":0,"x_max":387,"ha":387,"o":"m 292 672 q 293 668 293 661 q 293 656 290 638 q 287 620 287 605 q 287 590 292 535 q 297 479 297 434 q 297 334 270 240 q 243 147 204 98 q 164 49 74 -23 q 57 -32 57 -39 l 57 -40 q 42 -51 34 -51 q 28 -51 25 -46 q 22 -42 18 -12 q 0 -5 0 18 q 0 26 12 32 q 25 39 72 48 q 111 67 111 67 q 131 76 156 109 q 182 141 197 178 q 212 214 221 259 q 230 304 234 357 q 238 410 238 476 q 238 540 226 615 q 217 645 217 651 q 217 655 218 656 q 218 669 231 673 l 263 682 q 281 688 285 688 q 287 687 287 681 q 287 675 292 672 z"},"V":{"x_min":0,"x_max":657,"ha":657,"o":"m 687 664 q 573 484 451 212 l 378 49 l 378 42 q 378 24 366 6 q 354 -12 339 -13 q 330 -22 297 -22 q 283 -22 279 -10 l 257 67 q 202 257 168 359 q 135 460 108 515 q 82 569 78 575 l 78 586 q 50 626 50 628 q 50 632 62 638 q 73 643 79 647 l 98 659 q 109 661 116 666 l 130 659 q 136 621 153 566 l 188 466 q 205 417 215 385 q 230 337 242 294 q 258 237 271 208 l 292 155 q 302 131 312 117 q 323 98 339 85 q 353 93 364 107 q 376 122 388 150 l 530 466 q 566 546 582 585 q 597 624 597 637 q 597 641 596 642 q 597 674 625 674 l 630 674 q 636 674 648 680 q 660 687 667 687 q 687 687 687 664 z"},"\"":{"x_min":0,"x_max":378,"ha":378,"o":"m 230 673 q 216 649 204 627 q 192 604 182 583 q 172 562 165 543 q 157 524 151 506 q 148 497 142 490 q 134 481 134 480 q 132 475 128 462 q 125 449 120 442 q 115 435 101 433 q 100 438 100 448 q 100 477 120 526 q 139 575 151 614 q 163 653 183 670 q 202 686 230 693 z m 233 417 q 229 425 229 429 q 229 434 250 486 q 270 538 300 588 q 305 598 319 631 q 333 665 350 677 q 367 688 387 688 q 394 688 394 682 q 394 671 373 632 l 328 551 q 305 510 285 469 q 264 429 257 422 q 250 415 241 415 q 239 415 233 417 z"},"7":{"x_min":0,"x_max":506,"ha":506,"o":"m 32 655 q 43 673 72 673 q 82 673 100 671 q 111 664 122 664 l 144 665 q 150 665 166 662 q 181 658 192 658 l 252 660 l 301 659 q 376 659 405 672 q 434 685 450 685 q 454 685 462 684 q 469 683 473 683 l 479 684 q 489 684 489 672 q 489 667 482 656 q 475 645 475 640 q 475 637 476 635 q 472 629 460 628 q 444 607 419 562 l 272 278 q 256 249 219 157 l 188 82 q 180 64 177 55 q 173 44 173 39 q 173 35 174 34 q 170 21 159 4 q 149 -13 149 -20 l 149 -22 q 140 -42 131 -42 q 127 -42 120 -38 q 112 -33 95 -22 q 79 -11 79 6 q 79 26 98 53 q 113 68 135 111 q 157 154 214 254 q 271 354 344 506 q 354 535 366 564 q 379 594 379 598 q 379 609 372 609 q 371 609 367 607 q 317 626 264 626 q 239 626 209 621 q 180 616 172 616 l 152 617 q 134 617 105 606 l 77 595 l 71 595 q 49 595 40 605 q 31 615 31 640 z"},"S":{"x_min":0,"x_max":415,"ha":415,"o":"m 334 598 q 329 602 314 615 q 299 629 280 629 q 202 629 157 594 q 112 559 112 501 q 112 438 245 369 q 254 369 265 367 q 277 365 304 339 q 331 313 345 292 q 359 271 367 250 q 374 229 374 208 q 374 115 331 64 q 287 14 176 -27 q 170 -25 165 -25 q 157 -25 140 -33 q 124 -42 72 -42 q 53 -42 46 -27 q 38 -11 38 19 q 38 27 45 36 l 49 36 q 62 36 75 21 q 105 14 112 14 q 117 14 158 19 q 199 24 235 42 q 271 61 285 77 q 298 94 311 117 q 323 140 323 170 q 323 214 296 255 q 269 296 237 302 l 237 303 q 237 312 215 324 q 129 363 94 402 q 60 440 60 492 q 60 513 66 533 q 71 553 82 572 q 93 590 109 605 q 125 621 151 636 q 178 652 189 652 l 204 652 q 206 653 215 663 q 228 664 244 671 q 260 678 264 679 q 269 676 271 671 q 285 674 299 674 l 309 674 q 332 674 344 668 q 356 662 356 643 q 356 627 349 614 q 342 600 334 598 z"},"}":{"x_min":0,"x_max":440,"ha":440,"o":"m 212 732 q 234 727 247 698 q 261 668 257 637 q 256 626 256 620 q 256 616 258 604 q 260 591 260 583 l 253 405 q 253 391 252 386 l 250 380 q 250 373 266 363 q 282 353 298 353 q 304 353 312 354 q 320 356 323 356 q 330 356 334 348 q 338 339 338 330 q 338 325 318 317 q 299 309 282 299 q 266 289 263 281 q 260 274 257 259 q 255 243 253 221 q 252 199 252 171 l 253 146 q 253 128 250 102 l 247 78 l 259 28 q 266 11 266 -11 q 266 -42 240 -69 q 215 -96 203 -96 q 199 -96 194 -92 q 180 -79 145 -79 q 142 -79 122 -84 q 103 -90 86 -90 q 69 -90 69 -70 q 69 -58 72 -53 q 75 -49 87 -49 l 128 -48 l 172 -50 q 211 -50 211 15 l 211 20 l 197 36 l 194 74 q 194 78 197 88 q 199 98 199 104 q 199 111 197 123 q 195 134 195 140 q 195 149 198 170 l 188 192 l 188 203 q 188 307 251 330 q 226 331 210 344 q 195 358 195 371 q 195 376 198 384 q 201 392 201 395 l 200 421 l 202 508 l 201 552 l 204 620 q 204 661 179 686 q 156 686 133 680 l 115 688 q 114 687 111 687 q 106 687 102 692 q 97 696 97 700 q 97 707 109 707 q 113 707 116 704 l 124 716 l 134 716 l 170 718 l 181 718 q 188 718 212 732 z"},"Z":{"x_min":0,"x_max":627,"ha":627,"o":"m 588 53 q 596 45 596 32 q 596 25 587 -14 q 568 -18 544 -18 q 530 -18 524 -17 l 511 -15 l 507 -15 q 502 -15 493 -9 q 432 2 317 2 q 269 2 141 -2 q 83 -20 70 -20 q 52 -20 30 -13 q 31 17 46 35 q 61 53 61 57 q 61 60 60 61 q 75 69 78 72 q 78 76 81 86 q 114 113 122 119 q 130 125 130 136 l 130 139 l 131 138 q 133 138 138 142 q 142 145 147 152 q 153 158 159 168 q 166 178 172 191 q 179 204 185 220 q 187 224 198 235 q 209 245 212 248 q 283 365 390 511 q 410 538 413 545 q 416 552 417 559 q 422 569 433 584 q 445 600 445 608 q 445 612 444 615 q 365 614 326 609 q 288 604 286 604 q 279 604 268 606 q 256 609 253 609 q 248 609 241 605 q 216 612 184 612 l 163 611 q 161 607 154 607 q 146 607 137 612 q 133 622 133 625 q 133 645 147 655 q 161 665 165 668 q 266 663 286 663 l 351 668 q 385 671 392 672 l 399 665 l 410 665 q 460 665 505 689 l 511 683 q 521 699 537 696 q 553 693 564 693 l 566 693 q 581 693 581 678 q 581 667 542 629 q 509 596 476 553 q 443 510 383 423 l 275 266 q 228 196 198 150 q 168 104 153 78 q 138 53 138 51 q 138 43 177 43 l 256 47 l 293 44 q 322 44 417 50 q 511 55 556 55 q 577 55 588 53 z"},"x":{"x_min":0,"x_max":454,"ha":454,"o":"m 418 420 l 415 421 q 411 421 386 404 q 361 386 331 348 q 301 310 289 295 q 262 272 262 259 q 262 251 311 191 q 359 130 430 80 q 448 67 448 62 q 448 60 426 36 q 403 13 385 13 q 376 13 369 17 q 362 21 358 28 q 353 36 350 48 q 349 50 321 84 l 295 116 q 222 208 212 208 q 202 208 166 158 q 130 109 99 32 q 76 -4 44 -4 q 36 -4 21 2 q 7 8 7 16 q 7 33 32 36 q 35 36 82 99 q 129 163 197 239 q 105 392 64 392 l 61 392 q 56 400 56 406 q 56 418 75 438 q 93 458 110 458 q 124 458 136 438 q 168 365 240 285 q 303 342 326 413 q 340 445 352 445 l 365 443 q 379 443 390 448 q 401 453 404 453 q 419 453 419 431 q 419 424 418 420 z"},")":{"x_min":0,"x_max":430,"ha":430,"o":"m 124 729 l 125 729 q 130 729 136 735 q 141 741 145 741 q 157 741 220 674 q 284 607 306 518 q 328 429 328 396 q 328 346 293 215 q 257 84 166 -25 q 163 -31 163 -40 l 163 -46 q 133 -52 124 -71 q 120 -72 113 -72 q 90 -72 90 -50 q 90 -45 95 -39 q 101 -33 106 -20 q 111 -6 114 -1 q 116 -7 121 -7 q 125 -7 137 10 q 148 26 173 42 q 198 73 233 176 q 268 278 268 325 l 268 328 q 272 361 272 378 q 272 419 258 471 q 244 522 220 568 q 197 614 172 638 q 147 663 125 667 q 104 670 102 672 q 101 674 101 686 q 101 688 103 698 q 124 719 124 726 z"},"&":{"x_min":0,"x_max":739,"ha":739,"o":"m 709 390 q 700 367 657 371 q 644 372 637 372 q 632 372 632 366 q 631 365 629 365 q 627 365 625 367 q 623 369 621 369 l 619 368 q 614 366 611 348 q 609 338 607 333 q 604 322 601 312 q 596 300 589 288 q 582 274 571 260 q 564 251 563 242 q 562 235 562 230 q 562 224 548 199 q 541 186 525 161 q 517 147 508 134 q 498 122 498 111 q 498 91 531 61 q 565 32 622 7 q 641 -6 641 -22 q 641 -28 629 -52 q 616 -75 612 -80 q 608 -84 604 -84 q 593 -84 569 -66 q 562 -38 503 1 q 444 41 429 41 q 422 41 414 36 q 364 8 316 -7 q 269 -22 239 -22 q 225 -22 200 -17 q 175 -11 163 -10 q 151 -9 130 5 q 109 20 95 36 q 81 52 71 71 q 61 90 55 111 q 50 132 50 153 q 50 167 51 179 q 52 191 55 202 q 58 214 62 225 l 72 247 l 72 265 q 80 285 92 297 q 104 309 115 323 q 126 336 163 375 l 174 375 q 180 384 180 392 q 180 399 178 403 l 185 407 q 171 455 171 486 q 171 509 176 528 q 180 548 189 564 q 199 580 212 593 l 240 619 q 253 631 267 637 q 280 642 295 642 l 298 642 q 334 660 356 660 q 361 660 388 657 q 415 654 427 634 q 439 613 439 587 q 439 485 262 403 q 257 397 257 387 q 257 379 259 375 q 284 324 325 269 q 366 214 400 182 q 435 150 466 135 q 475 146 486 157 q 498 167 514 212 q 531 257 537 290 q 544 324 544 342 l 544 353 q 539 376 519 376 l 469 377 q 450 377 427 375 l 410 372 q 363 372 363 385 q 363 395 382 403 q 402 412 433 412 q 449 412 474 409 q 500 406 510 406 q 541 406 553 412 q 566 418 568 418 l 569 418 q 578 423 579 432 l 583 432 q 589 432 597 438 q 605 443 608 443 q 618 443 625 427 q 633 411 639 408 q 644 405 653 406 q 662 408 666 408 l 668 408 q 671 405 673 405 q 674 405 677 409 q 679 413 682 415 q 693 410 696 410 q 706 407 709 390 z m 261 427 q 282 427 335 469 q 388 512 388 561 q 388 583 378 595 q 369 607 359 615 q 350 624 334 624 q 312 624 298 620 q 268 600 251 594 q 238 587 228 558 q 218 530 218 508 q 218 493 222 469 q 227 444 232 437 q 237 429 255 428 z m 269 26 q 278 25 284 22 q 290 19 290 19 q 308 19 353 36 q 397 53 404 58 q 410 63 410 71 q 410 79 403 90 q 396 101 364 132 q 332 164 315 182 q 305 203 274 239 q 243 275 234 297 q 218 327 216 328 q 213 330 205 339 q 196 347 190 347 q 165 347 134 290 q 103 233 103 179 q 103 153 111 128 q 119 103 135 81 q 150 59 168 50 l 208 31 q 231 21 246 21 q 260 21 269 26 z"},"_":{"x_min":0,"x_max":500,"ha":500,"o":"m 500 -183 l 0 -183 l 0 -133 l 500 -133 z"},"v":{"x_min":0,"x_max":456,"ha":456,"o":"m 462 451 l 463 440 q 463 430 459 423 q 455 417 440 409 q 397 348 350 248 q 303 148 279 62 q 273 40 263 22 q 252 4 252 -1 q 252 -5 254 -7 q 241 -13 241 -23 q 231 -19 229 -19 q 222 -19 206 -23 q 206 -17 198 -10 q 191 -2 190 2 q 190 7 182 21 q 175 35 171 44 l 177 47 q 60 347 37 368 q 20 388 20 399 q 20 413 34 432 q 48 451 61 451 q 65 451 71 447 q 77 442 87 437 q 97 431 102 427 l 103 428 q 107 428 110 378 q 112 346 140 276 q 168 207 176 199 q 183 192 184 188 q 195 142 216 116 q 236 90 240 90 q 250 90 251 109 l 252 109 q 257 109 264 123 q 271 138 285 172 l 309 235 q 335 301 344 312 q 352 323 353 326 q 353 330 355 336 q 357 342 357 345 q 367 360 373 397 l 382 406 l 382 407 l 385 429 l 384 436 q 384 469 413 469 q 440 469 462 451 z"},"O":{"x_min":0,"x_max":776,"ha":776,"o":"m 595 647 q 629 649 680 572 q 731 494 731 401 q 731 354 722 311 q 713 269 696 233 q 658 156 643 133 q 608 82 564 51 q 521 20 475 6 q 429 -9 372 -9 q 236 -9 226 15 q 216 19 197 26 q 177 32 176 34 l 163 50 q 146 54 145 54 q 94 86 70 142 q 46 198 46 300 q 46 378 99 483 q 103 490 105 500 q 108 511 117 518 q 126 524 127 530 q 168 576 176 586 q 184 597 211 608 q 239 619 248 635 q 251 640 257 638 q 262 637 265 637 l 269 638 q 272 643 276 646 q 280 650 281 649 q 283 649 319 661 q 354 673 360 672 q 366 671 402 676 l 434 682 q 445 682 461 678 q 477 675 482 674 q 571 665 595 647 z m 610 161 q 669 269 669 358 q 669 419 655 467 q 641 516 614 550 q 587 583 551 604 q 515 625 459 631 q 403 638 392 638 q 391 638 383 633 q 376 628 370 620 q 364 617 354 617 l 338 618 q 320 618 311 603 q 310 602 308 602 q 306 602 304 607 l 297 603 l 297 596 q 295 596 293 600 q 292 603 289 603 l 287 603 q 241 587 233 576 q 221 572 215 571 q 209 565 197 549 q 185 534 177 525 q 170 516 163 510 q 156 503 156 488 q 130 465 115 410 q 100 355 100 297 q 100 243 116 200 q 132 156 156 145 l 156 135 q 171 117 188 102 q 205 87 238 75 q 271 64 293 57 q 316 51 344 46 q 372 42 400 42 q 417 42 426 43 l 461 51 q 477 55 486 56 q 489 57 512 71 l 547 91 q 552 93 554 96 q 557 100 557 105 l 557 109 q 560 114 576 123 q 592 132 602 138 q 612 143 612 151 q 612 157 610 161 z"},"(":{"x_min":0,"x_max":430,"ha":430,"o":"m 180 599 q 248 660 303 692 q 357 723 377 723 q 400 723 400 710 q 400 706 399 704 q 364 684 328 676 q 273 654 223 596 q 173 539 147 464 q 122 389 122 341 q 122 110 268 14 l 282 14 q 301 0 301 -15 q 301 -35 282 -45 q 264 -54 248 -54 q 238 -54 229 -50 q 227 -47 224 -40 q 220 -33 216 -29 q 197 -24 177 0 q 157 23 130 62 q 103 100 97 124 q 92 147 86 162 q 71 207 71 310 q 71 336 79 378 l 93 441 q 95 449 97 465 q 100 481 127 521 q 155 561 180 587 z"},"C":{"x_min":0,"x_max":622,"ha":622,"o":"m 582 -30 q 582 -42 565 -42 l 514 -35 q 412 -24 377 -18 q 323 -7 289 3 q 241 18 201 41 q 162 62 133 90 q 105 117 84 151 q 64 184 54 221 q 44 258 44 300 q 44 349 73 424 q 103 498 113 517 q 123 535 163 576 q 204 617 272 650 q 297 662 297 668 q 310 673 332 674 q 354 674 373 681 q 391 688 432 688 q 451 688 466 685 q 480 682 505 678 q 529 675 542 673 q 555 671 564 667 q 573 663 573 657 q 573 650 563 620 q 553 590 536 590 q 527 590 517 596 q 496 620 457 630 q 419 639 406 639 q 395 639 375 637 l 346 635 q 340 635 336 634 q 325 633 320 630 q 311 625 304 622 q 296 618 290 617 q 284 615 278 615 l 273 615 l 266 608 q 252 608 241 597 l 231 597 q 103 466 103 323 q 103 240 154 170 q 205 99 292 63 q 379 28 470 28 q 487 28 523 34 q 560 41 560 48 q 582 47 582 -28 z"},"W":{"x_min":0,"x_max":997,"ha":997,"o":"m 990 627 l 973 599 l 972 599 q 967 599 959 580 q 951 561 939 523 q 928 486 913 429 l 873 256 q 846 139 846 130 l 849 95 q 849 81 832 38 q 815 -5 800 -5 q 794 -5 789 0 q 790 6 790 13 q 790 19 765 56 q 740 94 715 142 q 690 190 659 242 q 627 294 593 360 q 560 426 519 526 q 515 535 508 535 q 502 535 497 532 q 492 528 487 521 q 481 514 477 506 q 470 495 456 466 l 310 149 q 280 83 261 60 q 257 24 244 5 q 230 -14 212 -14 q 192 -14 188 -1 q 185 11 183 68 q 148 335 83 581 q 72 621 72 626 q 72 645 88 656 q 105 667 117 667 q 145 667 145 631 l 145 612 q 145 524 184 357 q 222 189 222 166 q 222 142 247 124 q 268 139 268 148 l 268 149 q 268 157 304 231 l 396 420 q 452 535 468 563 q 484 590 484 592 l 482 604 q 490 620 490 624 q 496 627 496 632 l 496 642 q 522 664 526 664 q 529 664 536 659 q 534 649 534 645 q 534 644 536 638 q 538 637 540 635 l 545 629 q 550 624 554 611 q 569 562 588 513 q 607 465 630 417 q 653 369 680 323 q 707 276 736 231 q 767 187 800 145 q 824 146 875 438 q 875 462 885 510 q 894 559 899 598 q 905 638 910 645 q 932 650 949 650 q 966 650 988 645 q 986 642 986 637 q 986 631 990 627 z"},"A":{"x_min":0,"x_max":753,"ha":753,"o":"m 444 677 q 483 542 690 97 q 718 56 718 27 q 718 20 713 15 q 708 9 679 0 q 649 -8 640 -12 q 633 -3 633 5 q 633 12 635 21 l 637 29 q 637 45 621 95 q 605 146 567 223 q 563 225 559 234 q 555 243 538 243 q 529 243 520 234 q 519 238 500 241 l 485 245 l 470 245 q 420 245 401 240 q 382 234 381 234 q 374 234 370 241 q 340 233 325 235 q 311 237 297 237 q 265 237 237 229 q 209 222 201 221 q 193 221 186 209 l 179 214 q 129 111 105 52 q 102 15 90 -10 q 77 -36 67 -36 l 66 -36 q 49 -29 -2 -20 q -10 -19 -10 -11 q -10 5 7 19 q 24 33 27 40 q 43 70 56 82 q 74 103 100 151 q 127 199 144 216 q 145 237 191 308 q 237 379 271 441 q 304 503 308 508 q 376 605 376 640 l 376 642 q 387 642 387 647 l 387 652 q 387 670 411 691 l 418 688 q 431 704 438 704 q 447 704 447 691 q 447 683 444 677 z m 468 276 q 481 280 496 280 q 530 286 530 299 q 530 300 473 443 q 417 587 399 587 q 387 587 351 519 q 316 451 272 380 q 228 308 228 292 q 228 281 243 277 q 257 273 260 273 l 269 274 q 277 274 292 271 q 306 269 311 269 q 323 269 349 273 q 376 277 383 277 q 390 277 399 275 q 409 273 412 273 q 419 273 422 280 q 434 276 444 276 l 459 277 q 464 277 468 276 z"},"f":{"x_min":0,"x_max":312,"ha":312,"o":"m 441 885 q 452 883 458 872 q 464 861 464 853 q 464 840 448 835 l 448 833 q 448 817 427 814 q 418 824 402 824 q 398 824 395 817 q 383 819 378 819 q 355 819 354 808 l 345 808 q 313 808 305 796 q 302 793 284 783 q 266 773 254 763 q 243 753 226 727 q 208 700 193 660 q 177 621 173 594 q 169 567 161 533 q 153 498 153 492 q 153 448 178 448 q 183 448 186 449 q 190 443 197 443 q 199 443 202 444 q 206 445 214 444 q 222 443 230 443 q 242 443 269 449 q 297 455 314 455 q 317 455 327 453 q 336 452 337 448 q 338 443 341 429 l 340 429 q 334 429 322 413 q 320 416 315 420 q 312 412 302 412 q 295 412 270 415 q 245 417 226 417 q 220 417 210 416 q 200 415 196 415 q 192 415 181 417 q 177 415 174 415 q 171 415 166 417 q 166 413 162 413 l 160 414 q 152 414 152 305 l 152 251 q 152 203 158 139 q 165 75 167 68 q 169 62 176 54 q 175 51 175 45 q 175 37 180 23 q 185 10 185 3 l 185 0 q 170 -10 153 -22 q 144 -36 130 -36 l 128 -36 q 124 -32 115 -21 q 107 -11 100 -11 l 96 -12 q 90 1 90 7 q 90 10 98 19 q 107 29 107 50 l 106 61 l 108 106 q 110 157 110 209 q 110 260 106 317 q 102 374 102 386 l 103 406 q 103 411 91 411 q 89 411 84 410 q 80 409 77 409 q 73 409 71 410 q 67 409 67 404 q 64 410 60 410 l 50 409 q 49 409 45 413 l 45 414 q 45 421 56 428 q 66 435 71 439 l 80 439 q 87 444 87 452 l 91 452 q 99 452 104 459 q 108 465 114 500 q 119 536 120 559 q 135 637 163 691 q 191 745 213 772 q 236 799 271 823 q 305 846 318 846 l 323 846 q 339 860 361 862 l 374 871 q 436 877 441 885 z"},"Q":{"x_min":0,"x_max":776,"ha":776,"o":"m 749 57 q 756 45 756 37 q 756 15 742 0 q 728 -15 707 -15 q 693 -15 677 -7 q 639 2 600 2 l 594 2 q 569 2 514 -3 q 458 -9 427 -9 l 406 -6 l 371 -8 q 235 -8 226 15 q 216 19 197 26 q 177 32 176 34 l 163 50 q 125 55 85 114 q 46 172 46 300 q 46 378 99 483 q 103 490 105 500 q 108 511 117 518 q 126 524 127 530 q 168 576 176 586 q 184 597 211 608 q 239 619 248 635 q 251 640 257 638 q 262 637 265 637 l 269 638 q 272 643 276 646 q 280 650 281 649 q 283 649 319 661 q 354 673 360 672 q 366 671 402 676 l 434 682 q 445 682 461 678 q 477 675 482 674 q 571 665 595 647 q 629 649 680 572 q 731 494 731 401 q 731 314 700 245 q 670 175 648 143 q 627 111 604 86 q 582 61 582 56 q 582 44 608 44 q 627 44 635 50 q 640 49 649 49 l 672 50 q 674 50 685 48 q 695 46 706 46 q 733 46 749 57 z m 610 161 q 669 269 669 358 q 669 419 655 467 q 641 516 614 550 q 587 583 551 604 q 515 625 459 631 q 403 638 392 638 q 391 638 383 633 q 376 628 370 620 q 364 617 354 617 l 338 618 q 320 618 311 603 q 310 602 308 602 q 306 602 304 607 l 297 603 l 297 596 q 295 596 293 600 q 292 603 289 603 l 287 603 q 241 587 233 576 q 221 572 215 571 q 209 565 197 549 q 185 534 177 525 q 170 516 163 510 q 156 503 156 488 q 130 465 115 410 q 100 355 100 297 q 100 243 116 200 q 132 156 156 145 l 156 135 q 171 117 188 102 q 205 87 238 75 q 271 64 293 57 q 316 51 344 46 q 372 42 400 42 q 417 42 426 43 l 461 51 q 477 55 486 56 q 489 57 512 71 l 547 91 q 552 93 554 96 q 557 100 557 105 l 557 109 q 560 114 576 123 q 592 132 602 138 q 612 143 612 151 q 612 157 610 161 z"},"w":{"x_min":0,"x_max":663,"ha":663,"o":"m 631 458 l 637 452 q 649 448 649 434 q 649 415 642 399 q 634 382 611 318 q 587 254 569 186 q 551 117 546 83 q 540 49 531 26 q 522 2 500 -16 l 489 -16 q 487 -16 484 -20 l 481 -21 q 469 -21 461 4 q 460 29 413 133 q 366 236 343 288 q 331 331 313 331 q 310 331 304 329 q 275 258 244 168 l 196 32 q 199 31 199 28 q 199 27 196 24 q 193 21 193 18 q 193 14 196 6 q 193 7 191 9 q 188 11 187 11 q 162 -12 138 -12 q 130 -12 127 -2 q 124 8 121 38 q 105 187 71 277 q 69 283 66 301 q 62 319 60 331 q 57 343 51 356 q 45 370 36 383 q 28 396 28 406 q 28 441 104 444 q 110 427 110 413 q 110 407 109 395 q 108 382 108 375 q 108 340 130 255 l 173 93 q 232 225 262 302 q 293 380 293 391 l 292 404 q 292 415 302 430 q 312 446 327 446 q 338 446 343 439 q 348 432 357 410 q 359 405 360 393 q 360 380 366 365 q 372 350 385 324 q 397 299 410 265 q 424 230 435 206 q 445 181 465 146 q 484 110 492 104 q 500 98 509 93 q 545 190 563 263 q 581 337 581 373 q 581 396 570 411 q 582 418 584 431 q 585 445 590 445 l 594 445 q 600 445 611 451 q 623 458 631 458 z"},"-":{"x_min":0,"x_max":476,"ha":476,"o":"m 415 255 q 426 243 426 231 q 426 220 417 213 q 407 207 407 199 q 401 199 391 192 q 381 185 379 185 q 376 185 369 187 q 336 196 284 196 q 264 196 228 193 q 192 190 176 190 l 130 191 q 113 191 104 190 q 72 176 66 176 q 62 176 56 183 q 50 189 50 195 l 51 198 q 57 204 69 219 q 82 233 88 238 q 95 242 110 240 q 125 239 133 239 l 140 239 l 144 246 q 157 240 169 240 q 173 240 180 241 q 188 242 192 242 l 217 241 l 253 242 q 264 242 302 240 l 305 247 q 329 240 339 240 q 381 240 381 249 l 380 252 l 381 252 q 385 252 404 259 l 404 252 q 404 248 411 248 z"},"E":{"x_min":0,"x_max":543,"ha":543,"o":"m 199 668 q 204 668 221 666 q 238 664 252 664 l 364 666 l 407 664 q 417 664 444 667 q 470 671 487 671 q 513 671 513 657 q 513 656 510 637 q 506 618 498 614 q 491 609 476 609 q 472 609 447 611 q 410 633 287 633 q 266 633 235 632 q 204 630 199 628 q 194 626 189 622 q 183 599 177 539 q 170 478 170 470 q 170 448 177 428 q 184 409 185 396 q 186 383 208 383 l 216 383 q 221 383 222 382 q 222 381 229 377 q 236 373 245 373 q 254 373 274 375 q 293 377 303 377 q 306 377 312 376 q 318 375 322 375 q 336 375 344 382 l 371 379 q 379 384 426 387 q 427 384 427 378 q 427 374 426 365 q 425 356 425 352 q 425 345 426 342 q 419 320 388 320 q 380 320 360 327 q 341 334 320 334 l 291 333 q 280 333 253 335 q 227 338 210 338 l 196 338 q 183 330 178 323 q 173 317 167 287 q 162 256 162 222 q 162 198 166 148 q 170 98 172 71 q 173 45 175 44 q 176 42 181 41 q 187 39 189 36 l 218 35 q 242 35 286 39 l 328 42 l 342 41 q 348 40 359 40 q 400 40 482 57 q 497 65 502 65 q 508 65 508 55 l 503 36 l 504 19 q 504 1 496 -3 q 487 -7 462 -7 q 443 -7 403 -4 q 360 4 318 4 l 196 2 l 179 2 q 171 7 169 7 q 166 7 163 4 q 161 1 157 2 q 152 4 150 4 q 143 4 137 -2 q 125 -3 117 -11 l 114 -11 q 105 -11 100 -4 q 105 2 105 8 l 104 16 q 104 22 107 27 q 105 28 105 31 q 105 33 106 45 q 116 127 116 214 l 115 312 l 117 381 l 117 405 l 118 534 q 118 582 115 616 q 107 645 107 652 q 107 657 112 660 q 117 663 154 673 l 156 679 l 164 675 l 171 677 q 184 677 199 668 z"},"s":{"x_min":0,"x_max":342,"ha":342,"o":"m 265 250 q 303 216 303 168 q 303 106 265 55 q 227 5 166 -5 q 153 -5 129 -7 q 111 -14 91 -14 q 64 -14 49 -3 q 34 7 34 39 q 34 48 35 53 l 39 53 q 49 53 58 48 q 66 43 69 43 l 72 44 q 88 28 128 28 q 166 28 196 41 q 227 55 242 86 q 257 117 257 142 q 257 178 229 202 q 202 226 105 256 q 90 258 86 262 l 63 282 q 45 297 40 312 l 35 327 q 35 404 80 437 q 125 469 234 469 l 261 468 q 264 468 271 470 q 279 462 279 448 q 279 432 273 418 q 268 403 262 401 q 258 410 252 414 l 251 414 q 250 414 247 412 q 244 411 242 410 q 219 436 185 436 q 119 436 98 411 q 77 386 77 355 q 77 311 148 294 q 200 281 232 268 q 265 254 265 250 z"},">":{"x_min":0,"x_max":300,"ha":300,"o":"m 60 534 q 62 530 67 530 q 71 530 79 535 q 87 540 91 540 q 98 540 102 531 q 106 521 109 516 q 126 502 145 485 q 163 467 183 447 q 204 426 225 403 q 247 379 260 364 q 272 349 273 346 q 273 344 273 340 q 273 333 272 329 q 215 289 161 232 q 108 176 94 164 q 81 152 72 146 q 62 140 48 140 q 42 140 42 149 q 42 155 52 169 q 61 183 71 192 q 80 201 90 208 q 100 215 129 236 q 159 256 184 282 q 209 308 209 313 l 209 314 l 208 314 q 206 346 157 391 l 78 463 l 74 463 q 67 463 60 459 l 54 478 q 52 485 47 485 q 44 485 42 484 q 43 512 60 534 z"},"l":{"x_min":0,"x_max":257,"ha":257,"o":"m 177 28 q 172 13 169 9 q 166 5 154 4 q 148 -2 143 -2 q 139 -2 135 4 q 128 -2 118 -7 q 80 4 80 21 l 80 22 q 88 22 88 36 l 88 45 l 87 61 q 87 64 93 84 q 100 136 100 224 l 100 324 l 99 362 l 100 394 l 94 507 l 98 585 l 94 686 l 94 705 q 88 722 88 738 l 90 759 q 90 762 86 768 q 86 794 94 810 q 103 825 115 833 q 128 842 140 842 q 161 842 177 801 q 166 787 159 773 q 152 759 152 732 l 154 676 l 152 536 l 153 345 l 151 128 l 152 119 q 152 111 148 109 q 155 103 157 79 q 160 55 167 43 q 175 32 177 28 z"},"8":{"x_min":0,"x_max":532,"ha":532,"o":"m 349 347 q 404 334 413 323 q 421 312 438 300 q 454 288 465 270 q 477 251 477 211 q 477 121 412 59 q 347 -4 250 -4 q 249 -4 240 -2 q 232 0 231 0 q 228 0 225 -3 q 222 -6 220 -6 q 140 -6 91 32 q 42 70 42 128 q 42 191 65 225 l 65 235 q 113 305 169 326 q 142 330 119 343 q 96 355 76 377 q 46 408 43 424 q 40 446 40 462 q 40 555 106 615 q 173 676 266 676 l 286 672 q 288 672 292 675 q 295 677 298 678 l 311 679 q 333 679 363 670 q 392 660 393 660 q 411 655 433 634 q 455 614 466 592 q 476 570 476 547 q 476 533 474 519 q 473 506 469 493 q 466 480 462 469 l 452 447 l 452 437 q 401 362 349 347 z m 329 378 l 333 377 q 350 377 382 414 q 414 451 414 523 q 414 580 393 600 q 372 620 356 625 q 341 631 336 635 q 331 639 311 644 q 291 650 272 650 q 217 650 196 635 q 193 633 192 633 q 191 633 190 634 q 189 635 188 635 q 146 604 127 561 q 108 517 108 501 q 108 424 127 402 q 147 380 174 364 q 201 348 240 348 q 282 348 302 359 q 321 370 324 370 l 325 370 q 327 371 329 378 z m 329 37 q 367 58 391 105 q 416 151 416 194 q 416 227 400 257 q 383 287 356 302 q 330 318 312 318 l 294 316 l 271 318 q 249 318 236 312 q 234 314 232 314 q 229 314 217 309 q 205 304 197 303 q 188 303 188 295 q 160 295 135 250 q 109 206 109 161 q 109 114 121 88 q 132 62 162 41 q 191 20 225 20 l 238 21 l 245 21 q 268 21 288 24 q 308 28 311 28 q 318 38 325 38 q 328 38 329 37 z"},"\\":{"x_min":0,"x_max":334,"ha":334,"o":"m 319 -27 q 319 -42 302 -46 q 286 -51 280 -51 q 263 -51 253 -35 q 244 -20 237 18 q 232 24 225 24 q 227 30 227 34 q 227 58 217 96 q 207 135 155 266 q 103 398 87 447 q 71 495 66 508 q 61 520 61 526 l 61 528 q 58 537 43 565 q 28 593 28 601 l 29 621 q 29 636 26 643 q 6 673 6 696 q 6 700 8 704 q 38 711 43 711 q 45 711 46 711 q 47 710 49 708 q 51 707 54 704 q 58 702 63 698 q 65 697 78 673 l 88 652 q 93 642 94 640 q 95 634 95 624 l 94 602 q 94 601 98 591 q 101 581 105 568 q 108 555 110 540 q 112 525 119 510 q 126 494 131 489 q 130 477 126 466 q 140 432 142 422 q 144 413 154 402 l 151 390 q 153 390 196 294 q 194 282 194 280 q 194 279 208 247 q 221 215 225 209 q 229 203 229 197 q 229 190 233 176 q 238 161 247 152 q 254 137 265 100 q 275 63 283 44 q 302 21 307 -2 q 312 -24 319 -27 z"},"e":{"x_min":0,"x_max":457,"ha":457,"o":"m 418 312 q 422 308 422 301 q 422 287 414 280 q 415 279 415 277 q 415 269 394 269 l 387 269 q 384 269 381 266 q 378 262 377 262 q 376 262 372 265 q 368 268 360 269 l 354 275 q 343 272 333 272 q 325 272 311 274 q 297 276 291 276 q 286 276 268 273 q 251 270 238 270 l 190 272 q 151 272 120 265 q 116 263 107 261 q 99 260 98 254 q 97 247 88 243 q 83 223 83 207 q 83 194 90 159 q 98 123 110 108 q 113 104 152 77 q 177 58 206 49 q 235 39 273 39 q 288 39 311 42 l 331 44 l 363 44 q 368 44 381 53 q 395 62 408 63 q 414 49 414 39 q 414 16 400 -1 q 386 -18 368 -18 l 358 -16 l 327 -17 l 301 -17 q 282 -17 209 -1 q 137 14 102 40 q 67 65 51 105 q 35 146 35 183 q 35 234 55 286 q 74 339 99 368 q 124 397 175 428 q 180 431 190 438 q 200 446 209 446 l 225 445 q 235 452 262 456 q 289 461 305 461 q 335 461 370 439 q 406 417 413 347 q 415 335 417 327 q 420 320 420 319 q 420 316 418 312 z m 218 419 q 215 415 190 403 q 178 394 167 383 q 155 372 145 359 q 134 346 126 335 q 118 325 113 320 q 109 315 109 311 q 109 306 116 303 l 122 301 l 158 301 l 328 307 q 361 307 361 336 q 361 366 349 389 q 337 412 286 425 q 280 425 270 426 q 259 427 254 427 q 250 427 218 419 z"},"b":{"x_min":0,"x_max":531,"ha":531,"o":"m 173 445 q 176 452 198 456 q 221 460 235 460 l 310 454 q 348 451 379 438 q 411 425 444 400 q 468 382 482 346 q 496 309 496 273 q 496 160 384 87 q 380 85 376 79 q 373 73 371 72 q 360 65 353 61 q 345 57 332 52 q 319 48 302 44 q 286 40 266 36 q 262 35 256 31 q 249 27 247 27 q 245 27 244 28 q 238 28 185 6 l 179 12 q 163 9 156 -4 q 156 -12 145 -18 q 135 -25 120 -25 q 110 -25 105 -20 q 101 -15 89 -15 q 87 -15 77 -17 l 77 -15 q 77 -9 73 -1 q 70 7 70 10 q 70 15 84 26 q 98 38 98 43 l 98 44 q 111 183 111 320 q 111 578 96 689 q 86 704 86 708 l 87 719 q 87 723 85 737 q 84 751 84 763 q 84 780 96 782 q 109 784 117 787 q 125 789 126 789 q 129 789 135 787 q 141 785 145 784 q 148 784 170 769 q 175 748 175 740 q 175 735 174 734 q 173 732 171 725 q 151 670 151 557 q 151 492 155 468 q 159 445 170 445 z m 164 400 q 155 188 155 133 q 155 85 169 69 q 183 53 218 53 q 250 53 298 68 q 345 82 383 118 q 421 155 434 188 q 447 222 447 256 q 447 315 394 359 q 340 403 281 403 l 263 403 l 228 405 q 207 405 190 392 q 183 404 172 404 q 167 404 164 400 z"},"%":{"x_min":0,"x_max":613,"ha":613,"o":"m 231 681 q 241 687 245 687 l 256 685 q 277 683 280 681 q 289 664 302 657 q 315 649 343 647 l 405 644 q 443 644 453 647 q 464 649 475 663 q 493 685 527 685 q 543 685 553 669 q 563 654 563 638 q 563 626 558 622 q 553 617 541 612 q 529 606 523 603 l 523 593 l 521 593 q 516 593 511 588 q 507 583 504 583 q 503 583 499 585 q 206 108 206 88 q 202 72 179 42 q 157 13 149 0 q 154 -6 154 -11 q 154 -13 139 -42 q 125 -70 125 -77 q 125 -76 122 -71 q 119 -66 118 -64 q 116 -62 104 -57 q 93 -52 93 -49 l 94 -46 q 94 -42 90 -42 l 79 -42 q 84 -15 94 -1 q 104 12 125 28 q 137 38 150 53 q 161 67 173 87 q 184 105 198 132 l 225 185 q 236 198 254 224 l 306 313 q 341 375 374 434 q 417 515 460 603 l 453 610 q 324 606 312 606 l 307 549 q 305 521 303 510 q 301 500 293 485 q 285 470 278 458 q 270 446 245 429 q 219 411 200 402 q 181 392 166 387 q 150 383 138 383 q 102 383 85 405 q 68 427 68 477 q 68 498 71 517 q 74 534 81 552 l 90 581 q 94 591 105 607 q 115 623 126 635 q 138 647 151 657 l 172 672 q 179 678 186 680 q 192 682 204 682 z m 160 430 q 164 429 173 429 q 212 429 239 463 q 265 497 265 547 q 265 578 253 603 l 238 603 q 222 617 203 624 l 196 617 q 162 617 149 613 q 136 609 122 572 q 108 534 108 502 q 108 480 116 460 q 125 441 146 441 q 152 441 160 430 z m 400 243 q 422 271 429 271 q 434 273 452 281 q 471 290 489 290 q 528 290 552 252 q 577 214 577 151 q 577 99 554 62 q 530 25 500 9 q 481 -1 473 -18 q 466 -18 461 -20 q 456 -22 455 -22 q 454 -22 452 -20 q 451 -17 449 -15 q 431 -18 422 -18 q 414 -18 403 -15 q 396 -11 380 -3 q 363 5 351 15 q 339 25 332 49 q 325 72 325 94 q 325 165 390 243 z m 475 23 q 490 23 511 57 q 532 91 532 139 q 532 184 512 216 q 493 247 468 247 q 438 247 406 213 q 374 179 374 127 q 374 106 382 86 q 389 67 398 56 q 407 44 420 38 q 434 32 449 29 z"},"m":{"x_min":0,"x_max":865,"ha":865,"o":"m 578 433 q 593 434 618 439 l 639 445 q 715 445 750 406 q 785 366 785 282 q 785 238 777 188 q 769 137 748 77 q 726 16 726 1 q 726 -1 727 -4 q 722 -21 717 -44 l 688 -47 l 677 -46 l 667 -47 q 659 -47 646 -40 q 647 -2 659 7 q 656 12 656 14 l 656 17 q 662 23 669 23 q 734 148 734 243 q 734 288 722 325 q 711 362 702 377 q 693 391 672 398 q 650 406 623 406 q 602 406 560 386 l 493 355 q 468 344 468 326 q 468 324 470 318 q 462 316 458 312 q 446 207 446 137 l 448 28 q 448 14 442 7 q 412 1 403 -12 q 391 -5 387 -5 q 374 0 374 32 l 374 39 q 387 74 395 114 q 403 153 403 220 q 403 244 399 272 l 396 295 l 396 303 q 396 316 393 329 q 390 342 383 355 q 375 368 363 380 q 351 392 340 398 q 330 404 310 404 q 298 404 290 402 q 280 400 272 395 q 262 389 241 381 q 218 373 204 366 q 188 357 177 347 q 167 336 160 321 q 154 307 151 286 q 148 266 148 237 l 154 99 q 154 54 164 35 q 157 13 143 4 q 129 -5 121 -5 l 119 -5 q 113 -5 108 1 l 102 -3 q 98 3 96 11 q 101 18 101 34 q 101 41 100 56 q 98 72 98 80 l 98 86 q 98 87 102 140 q 105 193 105 286 q 105 298 86 308 q 83 315 83 319 q 83 322 86 331 l 80 334 q 85 342 94 350 q 102 359 104 362 q 106 364 106 372 q 106 381 98 396 q 90 412 91 417 q 93 422 93 424 q 93 427 100 438 q 106 449 112 459 l 121 459 q 124 462 129 469 q 134 475 139 475 q 150 475 161 464 q 171 453 171 438 q 171 431 170 427 q 162 414 162 404 q 162 382 171 382 q 172 382 186 390 q 200 397 222 406 q 245 415 262 423 q 280 431 282 431 l 298 429 q 302 429 304 430 q 316 439 347 439 q 369 439 394 426 q 418 413 429 388 q 433 377 441 372 q 449 367 455 367 q 457 367 457 369 q 457 370 456 371 q 460 373 475 383 q 490 394 508 397 q 515 413 568 423 z"},"#":{"x_min":0,"x_max":650,"ha":650,"o":"m 491 418 l 501 418 q 535 418 563 428 q 591 439 598 439 q 627 439 627 419 q 627 397 603 386 q 579 376 552 376 q 546 376 528 378 q 509 380 495 380 q 476 380 461 367 q 446 354 421 285 q 438 266 460 266 q 469 266 485 271 q 502 275 502 289 q 536 287 547 282 q 558 277 558 263 l 558 257 q 552 234 534 222 l 530 222 q 524 222 520 225 q 514 221 508 213 q 502 206 499 205 q 498 226 449 226 q 430 226 394 215 q 383 174 355 110 q 326 46 321 21 q 318 7 305 4 q 292 2 285 -3 l 285 -13 q 277 -8 261 -3 q 244 3 244 18 q 244 29 267 51 q 289 73 293 82 l 341 211 l 334 222 q 291 224 278 224 q 252 224 204 219 q 195 187 158 118 q 121 50 113 8 q 111 4 102 0 q 93 -4 92 -13 q 73 -5 69 -5 q 62 -5 49 -13 q 48 -9 48 -1 q 48 23 63 49 l 62 49 q 62 49 74 54 q 118 121 135 167 q 153 213 155 215 q 130 220 111 220 q 93 220 85 217 q 77 213 67 205 q 58 196 53 196 q 47 196 35 203 q 23 210 23 219 q 23 241 43 250 q 49 265 62 265 l 72 264 q 78 264 86 268 q 94 271 97 271 q 104 271 109 261 l 146 261 q 159 261 169 269 q 179 276 193 302 q 208 329 221 370 q 208 374 190 374 q 181 374 158 372 q 136 370 123 370 q 94 370 74 383 q 90 412 120 415 l 129 416 q 137 416 153 413 q 169 410 177 410 l 193 412 l 215 410 q 233 410 242 423 q 251 437 268 475 q 285 514 305 574 q 325 634 337 647 q 350 661 366 661 q 376 661 394 657 l 394 644 q 388 642 377 614 l 306 447 l 306 439 q 306 427 314 421 q 322 415 324 415 l 335 415 l 369 414 q 384 414 396 417 q 408 419 417 425 q 428 431 436 440 q 444 450 451 464 q 458 477 464 496 q 469 508 486 552 q 499 583 506 609 q 509 624 512 643 q 514 652 515 655 q 516 658 526 661 q 537 664 552 664 q 555 668 558 671 q 559 670 563 666 q 566 662 572 661 l 583 664 q 584 661 584 656 q 584 644 579 633 q 563 618 535 546 q 507 474 485 429 z m 404 370 q 390 378 370 378 l 338 377 l 307 378 q 284 378 281 367 q 279 358 274 352 q 264 346 257 334 q 249 323 240 301 q 232 279 232 278 q 232 269 239 264 l 265 264 q 292 264 311 266 q 330 269 343 274 q 356 279 366 291 q 376 303 380 309 q 383 314 390 336 q 396 358 404 370 z"},",":{"x_min":0,"x_max":250,"ha":250,"o":"m 54 -130 q 50 -124 50 -119 l 50 -116 q 61 -62 83 8 q 105 78 115 85 q 125 92 135 92 q 148 92 157 84 q 166 76 166 65 q 166 61 154 31 q 141 2 121 -28 q 101 -58 96 -81 q 92 -91 84 -103 q 76 -115 72 -122 q 68 -130 54 -130 z"},"n":{"x_min":0,"x_max":568,"ha":568,"o":"m 301 424 q 333 429 354 429 q 487 429 487 263 q 487 171 457 50 q 443 -2 443 -20 q 443 -24 445 -28 q 439 -58 409 -58 q 392 -58 377 -48 q 363 -39 363 -28 q 363 -12 383 12 q 404 36 421 105 q 438 175 438 245 q 438 389 320 389 q 273 389 233 370 q 192 351 186 328 q 182 323 173 318 q 165 314 164 311 q 163 308 159 237 q 155 167 155 130 l 155 107 q 155 89 161 74 q 167 59 167 56 l 166 39 q 166 23 160 13 q 155 4 146 4 l 144 4 l 141 -3 q 135 -1 133 -1 q 126 -1 115 -9 l 113 -9 q 107 -9 96 4 q 80 4 80 16 q 80 27 87 34 q 93 34 102 98 q 110 163 110 261 q 110 389 89 407 l 88 416 q 88 435 109 441 q 118 443 125 454 q 132 465 140 465 l 141 465 q 151 466 158 470 q 165 473 166 473 q 173 473 173 454 q 173 439 167 421 q 161 402 161 397 q 161 390 166 384 q 171 379 179 379 l 182 379 q 196 392 197 392 l 198 392 q 245 392 269 411 q 273 412 280 413 q 286 414 288 414 q 300 421 301 424 z"},"h":{"x_min":0,"x_max":544,"ha":544,"o":"m 100 826 q 105 829 115 830 q 124 832 132 833 l 149 837 q 170 837 170 806 q 170 801 168 781 q 162 754 162 716 l 164 643 l 162 533 q 162 433 168 414 q 174 395 189 395 q 194 395 216 407 q 237 418 250 425 q 264 432 280 438 q 297 444 312 446 l 339 449 q 353 450 362 450 l 370 450 q 409 441 430 418 q 451 396 457 361 q 463 326 463 243 q 463 182 447 114 q 431 46 431 42 l 431 37 q 431 31 435 20 q 438 9 439 4 q 426 -20 406 -20 l 397 -20 q 393 -20 387 -21 q 382 -23 380 -23 q 377 -23 365 -16 q 352 -9 352 -1 q 352 1 357 12 q 378 54 395 127 q 412 201 412 266 l 412 300 q 412 350 386 381 q 360 411 319 411 q 299 411 261 399 q 223 387 220 376 q 213 376 204 371 q 194 366 191 365 q 188 363 187 357 q 185 351 184 348 q 178 350 176 350 q 173 350 168 345 q 168 340 166 333 q 164 326 161 268 q 158 210 158 181 q 158 151 161 120 l 164 95 l 164 94 q 164 89 168 75 q 173 60 173 56 q 173 53 170 47 q 168 42 168 37 l 168 36 l 169 36 q 177 36 177 23 q 177 22 173 18 q 162 17 151 10 q 141 3 139 2 q 128 3 123 12 q 100 13 90 18 q 80 22 80 33 q 80 40 82 42 q 83 44 83 45 q 83 46 82 49 q 80 53 80 56 q 80 58 84 65 q 111 117 111 187 l 108 283 q 108 306 109 316 q 90 324 90 343 q 90 364 113 393 q 114 445 114 541 q 114 785 88 784 q 85 792 85 799 q 85 826 100 826 z"},"z":{"x_min":0,"x_max":430,"ha":430,"o":"m 415 33 q 423 28 423 15 q 423 5 416 -2 q 417 -6 417 -13 q 417 -30 403 -30 q 390 -30 363 -16 q 201 9 120 9 q 114 9 114 2 q 109 2 103 5 l 101 -2 q 84 7 75 7 l 62 5 q 54 5 48 0 q 42 -6 38 -6 q 35 -6 28 2 q 20 10 20 25 q 20 38 26 44 l 55 76 q 169 202 293 382 l 293 385 q 293 391 295 399 q 298 406 298 409 q 298 413 287 413 l 267 413 l 170 418 q 107 418 90 400 q 89 399 88 399 q 86 399 84 401 q 81 404 79 404 l 76 403 q 54 390 50 390 q 46 390 44 402 q 41 414 41 423 q 41 464 72 477 q 76 470 90 468 q 104 467 111 464 q 135 454 179 454 l 214 454 l 290 451 q 331 451 392 464 q 400 455 400 447 l 399 442 q 390 443 379 426 q 369 409 363 400 q 357 391 350 384 q 343 376 325 349 l 292 302 q 247 239 249 229 q 240 229 236 222 q 192 146 154 116 q 152 106 150 101 q 125 91 125 72 q 125 63 129 55 l 136 55 l 139 48 l 155 49 q 160 49 163 46 q 166 44 167 44 q 170 44 172 48 q 180 45 185 40 l 210 40 q 276 29 345 29 l 381 30 l 402 30 q 412 30 415 33 z"},"B":{"x_min":0,"x_max":534,"ha":534,"o":"m 322 402 q 409 372 446 330 q 484 289 484 218 q 484 117 385 45 l 374 45 q 365 36 356 30 q 347 24 345 24 q 343 24 341 28 q 341 25 329 20 q 318 14 284 8 q 250 3 249 3 q 241 3 238 4 l 227 -7 l 213 -2 q 207 -7 199 -7 q 192 -7 189 -5 q 177 -6 146 -7 q 115 -7 100 -9 q 103 -3 103 10 l 102 27 l 108 81 q 112 107 113 135 q 114 162 115 189 q 115 216 115 250 l 115 284 l 120 478 q 120 569 112 611 q 104 653 104 663 q 104 692 142 692 l 152 702 q 165 694 180 689 q 270 684 319 672 q 369 661 394 628 q 419 596 419 544 l 419 538 q 404 464 322 402 z m 251 415 q 255 416 262 416 l 276 415 q 288 415 322 451 q 355 487 355 528 q 355 543 352 557 q 349 570 343 583 q 337 596 329 608 q 320 620 310 628 q 300 637 293 639 l 245 652 q 222 659 214 659 q 187 659 179 636 q 171 614 171 557 l 176 452 q 176 419 178 408 q 181 397 193 397 l 199 398 l 211 396 q 222 396 227 405 l 238 404 l 248 405 z m 252 28 q 257 27 266 27 q 295 27 338 52 q 380 78 405 122 q 429 166 429 214 q 429 271 380 315 q 332 358 247 363 q 243 360 233 352 q 220 366 204 366 q 173 366 173 316 l 174 277 q 174 265 171 245 q 168 226 168 219 q 168 211 170 193 q 172 175 172 165 q 172 152 170 129 q 168 105 168 94 q 168 87 170 74 l 173 62 l 171 50 q 171 27 201 27 q 210 27 223 22 q 236 18 242 18 z"},"K":{"x_min":0,"x_max":657,"ha":657,"o":"m 121 629 q 118 632 118 634 q 118 642 131 653 q 143 664 163 670 l 181 677 l 184 677 q 191 677 197 668 q 202 660 202 647 q 202 644 200 634 q 189 624 189 607 l 189 587 q 189 375 184 250 q 178 125 178 121 q 178 110 181 83 q 183 57 183 40 q 183 20 176 6 q 169 -7 159 -7 q 157 -7 151 -5 q 145 -3 141 -3 q 139 -3 134 -4 q 129 -6 123 -6 q 100 -6 100 20 q 100 23 102 35 q 116 50 124 109 q 132 168 132 380 q 132 534 121 629 z m 640 85 q 657 79 657 62 q 657 34 642 15 q 627 -3 605 -3 q 583 -3 564 24 q 546 50 475 101 q 403 152 345 198 q 287 244 239 262 q 202 283 202 300 q 202 309 210 320 q 236 339 250 359 q 262 363 273 365 q 281 372 295 383 q 309 394 311 396 q 320 413 362 468 q 404 522 431 561 l 499 658 q 519 663 532 663 q 543 663 548 662 q 552 654 552 644 l 552 640 q 552 630 545 619 q 515 599 474 556 q 475 547 441 508 l 400 458 l 368 412 l 347 392 q 338 384 333 379 q 328 375 327 373 q 322 362 314 349 q 305 336 305 330 q 305 310 320 295 q 334 280 366 258 q 397 235 420 219 q 442 202 451 196 q 459 190 475 176 q 491 161 499 155 q 516 147 523 141 q 531 134 538 130 q 545 126 550 119 q 554 117 562 115 q 569 112 571 111 l 571 110 q 571 102 598 92 q 625 83 631 83 q 634 83 640 85 z"},"R":{"x_min":0,"x_max":611,"ha":611,"o":"m 605 72 q 610 66 610 56 q 610 39 594 22 q 578 5 566 5 q 557 5 540 23 l 512 51 q 481 81 406 125 q 331 170 205 257 l 199 283 l 199 287 q 199 294 207 297 q 215 299 230 304 q 323 334 360 376 q 397 417 397 487 q 397 570 348 606 q 300 642 237 642 l 216 642 q 201 642 188 633 q 176 625 176 589 q 176 572 177 561 q 178 550 178 530 l 173 408 q 173 379 173 363 l 175 327 l 173 305 q 171 279 171 250 q 171 223 179 6 q 176 2 172 -5 q 167 -12 164 -12 q 162 -12 157 -9 q 126 -18 124 -18 q 116 -18 109 -8 q 101 2 101 23 l 101 28 q 124 64 124 173 l 121 352 l 124 481 l 123 558 q 123 575 119 603 q 115 631 115 643 q 115 654 119 659 q 123 665 131 666 q 140 667 163 670 q 187 673 213 673 q 262 673 303 664 q 343 655 381 634 q 418 613 433 589 q 447 565 455 542 q 462 518 462 495 q 462 367 295 301 q 283 292 283 285 q 283 273 303 258 q 323 243 377 208 q 391 201 411 186 q 430 171 437 166 q 458 158 474 146 q 490 133 500 131 q 510 128 512 127 q 512 123 519 117 q 537 108 563 89 q 589 71 599 71 q 603 71 605 72 z"},"T":{"x_min":0,"x_max":537,"ha":537,"o":"m 587 657 q 584 633 576 618 q 566 616 565 616 q 548 616 524 618 q 501 620 493 620 q 487 620 484 619 q 477 629 418 629 l 336 625 l 333 625 q 329 625 324 622 q 313 581 308 509 q 303 437 303 394 l 306 339 l 299 305 q 296 289 296 272 q 295 256 295 235 l 301 130 q 301 111 296 109 q 300 108 305 81 q 309 54 313 40 q 317 26 317 23 q 317 16 291 7 q 292 5 292 2 q 292 -2 289 -2 q 286 -2 283 4 q 273 -4 266 -7 q 263 2 253 2 q 248 2 239 1 q 229 0 225 0 l 221 0 q 231 5 229 36 q 227 52 227 61 q 227 62 229 65 q 245 109 245 247 l 248 470 q 248 577 239 604 q 240 607 240 611 q 240 616 238 619 q 236 623 228 624 l 198 626 q 178 628 170 628 q 131 628 124 615 q 116 620 108 620 q 101 620 92 616 q 82 612 65 612 q 45 612 32 623 q 31 626 31 631 q 31 637 35 650 q 40 663 40 671 l 40 673 q 47 677 57 677 q 63 677 96 672 q 128 667 167 667 l 240 667 q 267 667 289 673 l 292 679 q 298 677 299 675 l 307 677 q 312 677 321 669 q 329 662 333 659 q 338 659 355 662 q 372 664 387 664 l 467 666 l 481 664 l 485 664 q 493 664 514 667 q 536 669 549 669 q 581 669 587 657 z"},"P":{"x_min":0,"x_max":552,"ha":552,"o":"m 114 214 q 114 215 125 240 q 128 267 128 309 l 127 367 l 129 472 q 129 551 125 586 q 120 621 120 622 q 120 626 122 633 q 123 640 123 642 l 122 652 q 122 669 144 675 q 167 681 236 681 q 301 681 350 672 q 398 662 434 642 q 469 622 484 599 q 499 576 506 556 q 512 537 512 489 q 512 456 502 431 q 492 407 466 366 q 440 325 407 297 q 374 268 335 251 q 297 233 248 226 q 211 221 198 210 q 185 199 185 161 q 185 145 188 125 q 192 105 192 83 l 191 61 q 191 51 193 39 l 195 27 l 195 20 q 195 12 192 10 q 189 8 176 5 q 162 3 149 -2 q 137 -7 135 -7 q 132 -7 124 -3 q 116 0 108 2 q 100 3 100 7 q 100 10 109 20 q 118 30 118 41 l 118 44 q 121 63 125 83 q 130 102 130 134 q 130 153 128 174 q 126 195 125 198 q 123 202 118 207 q 114 212 114 213 z m 189 255 q 229 261 263 272 q 298 282 327 295 q 355 309 368 321 q 381 334 398 352 q 414 370 423 382 q 427 394 437 415 q 446 436 448 455 q 450 473 450 498 q 450 552 424 577 q 398 602 365 624 q 331 646 262 646 l 228 646 q 204 646 195 635 q 185 624 185 596 l 189 520 l 188 436 l 188 325 q 188 281 189 255 z"},"|":{"x_min":0,"x_max":200,"ha":200,"o":"m 129 822 q 135 813 135 804 l 134 797 l 134 781 q 134 772 132 762 l 130 755 q 130 747 135 729 l 140 713 q 140 692 136 666 q 132 639 132 630 l 132 627 q 134 617 134 612 l 132 584 l 133 575 q 135 563 135 554 l 135 543 q 136 535 136 514 q 136 489 133 447 q 129 404 129 385 q 129 331 123 256 q 117 181 117 144 q 117 85 129 64 q 121 61 121 50 q 121 45 122 34 q 123 22 123 15 q 123 -20 106 -30 q 89 -40 76 -40 q 62 -40 60 -27 q 64 -19 64 -9 q 64 0 62 4 q 61 8 61 15 q 61 19 66 34 q 72 49 72 67 l 72 158 q 72 170 73 179 q 76 185 78 194 l 80 214 l 75 238 l 84 328 l 78 339 q 81 395 90 453 l 85 464 q 89 473 89 485 l 89 498 l 90 538 q 90 539 87 546 q 83 552 81 558 q 86 578 86 605 l 83 631 q 81 645 81 662 l 81 681 q 70 711 70 724 q 70 729 74 757 q 78 785 84 799 q 90 813 99 816 q 108 819 129 822 z"},"t":{"x_min":0,"x_max":351,"ha":351,"o":"m 286 430 q 287 427 292 425 q 297 423 298 423 l 303 423 q 319 423 331 416 q 343 408 343 399 q 343 389 329 380 l 323 386 q 316 374 300 371 l 297 377 l 291 375 q 270 385 247 385 l 201 383 q 191 383 172 385 q 159 290 159 236 q 159 216 161 189 q 164 163 170 146 q 176 129 183 115 q 189 101 204 87 q 219 73 232 67 q 245 61 255 51 q 264 40 304 40 l 314 40 q 323 33 323 28 q 323 22 316 11 q 309 0 305 -8 q 301 -16 291 -25 l 289 -25 q 287 -25 285 -22 q 268 -22 255 -18 q 255 -19 254 -19 q 253 -19 249 -16 q 246 -14 242 -12 q 239 -5 228 0 q 206 8 187 23 q 168 38 148 66 q 128 94 123 117 q 118 141 115 174 q 112 207 112 244 q 112 308 121 384 l 111 387 l 108 381 l 101 381 l 99 387 q -14 392 -14 409 q -14 416 -7 421 q 0 426 34 426 l 53 426 l 74 431 q 85 433 96 439 q 106 446 115 455 q 123 464 129 520 q 134 554 134 593 l 134 613 q 134 622 141 639 q 147 656 157 666 q 167 676 172 676 q 182 676 192 672 q 203 668 205 667 q 206 666 208 659 q 210 653 213 650 l 213 648 q 213 646 209 645 q 206 644 205 643 q 204 642 203 641 q 202 640 196 615 q 189 589 185 564 q 181 539 178 514 q 176 490 176 466 q 176 432 179 427 q 182 423 187 423 q 189 423 199 426 q 209 429 218 429 q 222 429 225 428 l 231 416 q 234 415 239 415 q 244 415 260 422 q 275 428 286 430 z"},"M":{"x_min":0,"x_max":895,"ha":895,"o":"m 736 701 q 744 690 744 684 l 744 665 q 744 617 753 521 q 762 424 776 327 q 790 230 803 150 q 816 69 818 56 q 820 43 827 33 q 835 17 835 12 q 835 3 818 3 l 814 3 l 803 -11 q 792 -14 776 -16 q 760 -18 757 -21 q 755 -21 753 -15 q 752 -10 750 2 q 749 13 748 30 l 745 122 q 744 177 741 194 q 732 250 725 312 l 714 407 q 704 491 698 524 q 692 557 680 563 q 495 202 495 185 q 495 183 497 173 q 493 167 489 158 q 493 153 493 147 q 464 118 458 94 q 451 87 445 87 q 441 87 424 102 q 407 116 402 142 q 398 144 396 147 q 393 151 390 156 q 388 160 386 167 l 383 180 q 382 188 381 197 l 356 249 l 310 356 q 257 480 229 535 q 225 532 222 528 q 218 523 214 500 q 203 437 186 354 l 162 237 q 149 172 145 113 q 145 106 140 93 q 136 80 136 72 q 136 70 138 62 q 139 53 139 43 q 139 7 127 -4 q 118 -4 108 -12 q 98 -19 94 -19 l 93 -19 q 85 -19 75 -10 q 64 0 60 3 q 96 43 141 327 q 147 368 168 450 q 188 533 188 571 l 187 614 q 187 648 197 668 q 208 687 225 687 q 250 687 257 640 q 270 634 270 624 q 271 613 275 588 q 280 563 309 503 l 338 447 l 338 429 q 347 403 382 327 q 417 252 431 232 q 444 212 454 212 q 484 212 525 318 q 533 338 563 399 q 593 459 608 502 q 623 544 643 574 q 650 586 664 627 q 677 668 692 686 q 707 703 725 703 q 728 703 736 701 z"},"g":{"x_min":0,"x_max":508,"ha":508,"o":"m 428 479 q 417 426 417 306 q 417 267 421 184 q 426 100 426 36 q 426 -86 402 -159 q 378 -232 363 -232 l 360 -231 q 347 -267 296 -280 q 246 -292 222 -292 q 212 -292 193 -289 q 174 -286 165 -286 q 155 -286 151 -287 q 144 -294 136 -294 q 130 -294 127 -289 q 123 -295 112 -295 l 103 -294 q 102 -294 96 -295 q 91 -297 90 -297 q 85 -297 78 -291 q 71 -285 71 -270 q 71 -262 73 -250 q 74 -237 74 -233 l 74 -222 q 74 -216 81 -208 l 85 -208 q 95 -208 117 -221 q 169 -252 224 -252 q 267 -252 291 -235 q 321 -233 323 -215 q 332 -211 352 -165 q 373 -119 373 -24 l 373 -10 q 366 3 347 3 q 337 3 323 0 q 309 -3 297 -3 q 276 -3 235 2 q 194 7 171 14 q 148 20 115 40 q 81 60 67 81 q 53 101 44 128 q 35 156 35 185 q 35 241 66 290 q 96 339 154 375 q 159 376 163 383 q 172 399 238 414 l 296 429 l 297 429 q 303 429 356 449 l 363 441 q 366 449 366 474 l 366 496 l 375 496 q 420 496 428 479 z m 334 70 q 335 64 344 64 q 372 64 372 128 l 364 352 l 366 368 q 366 402 320 402 q 285 402 237 389 q 189 376 150 340 q 112 304 98 270 q 85 235 85 202 q 85 158 114 124 q 143 90 185 70 q 227 51 306 51 q 312 51 317 53 q 323 55 334 70 z"},"j":{"x_min":0,"x_max":257,"ha":257,"o":"m 159 625 q 167 618 185 611 q 202 603 202 591 q 202 580 189 567 q 177 555 163 555 q 149 555 133 572 q 117 588 117 591 q 117 600 131 612 q 145 625 158 625 z m 171 -268 q 167 -274 158 -281 q 148 -289 147 -289 q 144 -289 143 -288 q 141 -286 139 -286 q 137 -286 132 -289 q 126 -292 122 -292 q 114 -292 102 -289 q 89 -285 89 -283 q 89 -282 92 -276 q 94 -270 94 -264 l 94 -257 l 99 -196 q 114 -8 114 125 q 114 171 111 221 l 105 308 q 103 344 102 362 q 101 381 98 399 q 95 417 95 427 q 95 441 101 450 q 106 460 126 468 l 146 475 l 158 476 q 188 476 188 459 q 188 458 185 451 q 182 445 182 437 l 180 437 q 162 437 154 337 q 146 238 146 22 q 146 -110 156 -182 l 163 -232 z"},"i":{"x_min":0,"x_max":257,"ha":257,"o":"m 157 625 q 165 619 183 611 q 200 603 200 591 q 200 580 188 568 q 175 556 162 556 q 148 556 132 572 q 116 588 116 591 q 116 600 130 612 q 143 625 156 625 z m 179 3 q 179 0 158 -9 q 137 -17 132 -17 l 129 -17 q 124 -17 116 -19 q 109 -21 106 -21 q 97 -21 89 -14 q 82 -8 82 -4 q 82 6 86 28 q 90 50 98 60 q 102 91 102 175 l 98 352 l 99 383 q 99 388 91 401 q 83 414 83 433 q 83 444 89 449 q 95 454 117 463 l 145 475 q 147 476 151 476 q 163 476 163 438 q 163 417 156 326 q 148 236 148 180 q 148 148 150 120 q 151 92 153 78 q 155 63 162 51 q 176 25 176 5 q 178 4 179 3 z"},"y":{"x_min":0,"x_max":503,"ha":503,"o":"m 430 439 q 436 444 444 444 q 451 444 471 439 q 490 434 490 425 q 490 412 473 400 q 467 400 422 318 l 341 172 q 306 108 301 62 q 296 24 279 12 l 276 0 q 268 -1 263 -10 q 192 -173 177 -211 q 162 -250 160 -271 q 159 -292 139 -292 l 134 -292 q 117 -286 90 -286 l 87 -287 q 79 -287 79 -279 q 79 -276 82 -275 q 82 -271 118 -223 q 114 -222 114 -218 q 114 -211 137 -177 q 194 -91 231 -10 q 228 -5 228 0 q 225 2 219 2 l 217 2 q 207 2 203 27 q 199 53 197 57 q 175 95 152 150 q 128 205 104 254 q 79 304 68 330 q 58 355 42 374 q 26 393 26 406 l 26 411 q 24 410 20 410 q 13 410 13 413 q 13 416 29 436 q 44 456 64 467 q 79 461 86 457 q 94 453 104 410 l 115 371 l 115 355 q 134 319 164 254 l 179 222 q 187 205 193 191 q 200 177 208 165 q 215 152 223 142 q 235 125 236 123 q 240 116 244 110 q 249 104 254 98 q 260 93 266 89 l 304 175 q 353 285 367 309 q 381 333 389 354 q 396 375 402 400 q 407 425 411 433 q 415 440 424 440 z"},"@":{"x_min":0,"x_max":887,"ha":887,"o":"m 372 645 q 376 649 380 653 q 384 656 394 658 l 444 671 q 469 678 487 680 q 516 682 527 683 l 564 689 q 577 689 594 685 q 611 681 616 681 l 622 681 q 642 681 670 675 q 696 670 716 663 l 745 652 q 759 648 765 645 q 773 641 794 611 q 811 587 821 563 q 833 539 838 513 q 844 487 844 461 q 844 393 807 306 q 770 219 697 172 q 624 126 563 126 q 498 126 484 161 l 472 191 l 472 202 l 473 248 l 466 254 q 372 130 291 130 l 279 130 q 250 141 244 156 q 238 172 238 186 l 238 191 q 238 256 271 317 q 304 378 355 415 q 406 451 443 466 q 479 480 488 480 l 503 479 q 506 479 519 487 l 526 485 q 529 490 537 490 l 541 490 l 550 499 q 549 527 591 533 q 595 526 604 522 l 604 518 q 604 494 591 475 q 581 467 581 452 l 581 449 q 574 434 565 401 q 556 367 548 350 q 541 333 533 294 q 525 254 525 233 q 525 216 526 210 q 525 208 525 203 q 525 191 535 179 q 546 167 572 164 q 599 160 601 160 q 637 160 688 193 q 708 215 713 215 l 714 215 q 782 294 782 455 q 782 514 744 570 q 706 625 627 640 q 548 654 509 654 q 508 654 499 649 q 490 644 482 635 q 473 632 463 632 l 445 632 q 426 632 417 625 q 409 617 407 617 q 406 619 403 621 q 398 621 394 618 l 394 611 l 392 611 q 390 611 388 614 q 386 618 381 618 q 376 616 361 611 q 345 607 336 602 q 327 598 318 592 q 309 586 292 584 q 287 580 261 555 q 234 530 222 520 q 209 511 207 497 q 162 461 131 385 q 99 310 99 236 q 99 203 110 175 q 121 146 136 140 l 134 130 q 147 110 165 95 q 182 80 213 70 l 269 52 q 292 44 327 39 q 362 34 400 34 l 428 34 q 460 41 484 45 q 508 50 514 52 q 521 55 526 55 q 537 55 537 49 q 537 46 531 37 q 414 -8 356 -8 q 321 -8 274 -2 q 227 4 212 4 q 206 4 200 15 q 187 21 165 28 q 144 34 142 39 q 140 44 138 47 q 136 49 136 50 q 101 56 72 97 q 43 137 43 206 q 43 356 151 488 q 155 493 160 505 q 165 516 177 523 q 190 530 192 535 q 248 592 316 622 q 344 633 347 642 q 354 645 359 645 l 365 644 z m 497 348 q 502 352 504 358 q 505 364 508 373 q 511 382 515 400 q 520 418 520 422 q 520 438 518 439 q 516 441 511 441 q 497 441 487 448 q 473 441 453 437 q 434 434 439 428 q 440 427 441 426 q 416 425 392 409 q 369 394 333 327 q 296 260 296 230 q 296 223 297 212 q 299 202 299 199 l 300 188 q 310 170 321 170 q 333 170 354 182 q 375 193 382 195 q 388 197 427 237 q 466 277 471 286 q 476 295 497 348 z"},".":{"x_min":0,"x_max":250,"ha":250,"o":"m 128 108 q 139 106 143 93 q 147 79 156 66 q 164 54 164 48 q 164 29 153 13 l 151 13 q 148 13 146 17 q 128 11 118 -4 q 108 3 100 6 q 96 20 96 40 q 96 47 91 55 q 85 63 85 68 l 85 70 q 86 72 91 79 q 95 86 96 87 z"},"p":{"x_min":0,"x_max":500,"ha":500,"o":"m 150 424 q 240 456 268 461 q 296 467 302 467 q 316 467 364 449 q 411 432 416 424 q 418 420 435 398 q 466 367 466 306 q 466 255 437 201 q 408 146 368 122 q 362 115 361 109 q 302 60 284 52 l 271 46 q 249 24 240 24 q 236 24 234 25 q 210 9 199 2 q 188 -5 169 -8 q 150 -11 145 -14 q 141 -17 138 -32 q 135 -48 135 -80 q 135 -140 139 -186 q 143 -233 145 -240 q 147 -247 151 -252 q 155 -258 155 -260 q 155 -264 150 -267 q 146 -270 140 -273 q 135 -277 133 -277 q 132 -277 131 -275 q 108 -285 92 -285 q 86 -285 78 -280 q 70 -274 70 -266 q 70 -255 76 -237 q 83 -219 83 -211 l 82 -193 l 86 -58 q 86 -27 83 -13 q 81 0 69 13 l 73 36 l 72 40 q 72 45 79 53 q 86 62 86 79 l 85 106 l 85 116 q 89 128 89 147 l 89 209 q 89 218 90 237 q 92 255 92 265 q 92 314 89 331 q 86 347 77 347 q 73 347 62 344 q 51 340 45 340 l 41 341 l 30 353 q 37 363 63 375 q 89 388 89 401 q 89 404 87 412 q 86 419 86 425 l 87 432 q 87 436 79 446 l 77 465 q 77 483 85 490 q 93 497 107 501 q 122 505 126 508 l 141 508 q 153 508 153 498 l 149 482 q 145 465 145 458 l 146 446 l 144 429 q 144 425 150 424 z m 153 61 q 177 52 202 52 q 215 52 225 54 q 235 56 260 71 q 284 85 319 110 q 332 119 343 129 q 354 140 378 181 q 389 199 397 231 q 406 263 406 282 q 406 298 396 332 q 387 365 363 386 q 338 408 329 408 l 326 408 q 313 408 303 417 l 284 417 l 251 418 q 192 418 166 399 q 139 379 139 328 l 140 285 l 137 76 q 137 69 145 67 q 152 64 153 61 z"},"X":{"x_min":0,"x_max":623,"ha":623,"o":"m 541 668 q 516 639 496 612 q 477 587 462 565 q 449 545 440 529 l 427 503 q 408 479 396 461 q 382 441 373 426 q 363 411 359 398 q 354 386 354 377 q 354 360 408 288 l 470 201 q 487 175 492 171 q 500 165 506 157 q 512 150 517 144 q 522 137 529 126 q 553 90 578 72 q 604 54 604 37 q 604 29 592 21 q 581 12 575 6 l 575 -4 l 573 -5 q 572 -5 570 -3 q 568 -1 566 -1 l 565 -1 q 557 -8 547 -8 q 536 -8 519 3 q 520 4 520 6 q 520 27 445 134 q 424 156 399 193 q 374 230 365 238 q 357 245 346 265 q 335 285 326 298 q 316 310 304 310 q 296 310 288 304 q 280 298 271 287 l 227 228 q 201 193 184 169 q 167 144 151 113 l 128 66 q 118 46 118 38 l 118 35 q 102 0 97 0 l 94 0 q 85 0 77 -3 q 68 -7 66 -7 q 49 -7 22 19 q 26 25 33 32 q 40 39 40 41 q 40 42 35 44 q 76 57 96 109 q 105 125 124 146 q 142 167 150 178 l 175 212 q 193 236 222 278 l 276 360 l 200 461 q 145 537 111 569 q 78 602 50 609 q 44 615 44 619 q 44 622 60 648 q 76 675 96 679 l 100 686 q 121 680 128 655 q 128 639 166 597 q 204 554 255 485 q 307 415 322 415 q 326 415 332 422 l 367 474 q 398 519 417 562 q 436 606 438 641 q 446 646 455 658 q 463 670 469 674 q 474 678 488 681 q 502 684 519 684 q 524 684 531 677 q 537 669 541 668 z"},"*":{"x_min":0,"x_max":335,"ha":335,"o":"m 266 651 q 271 643 271 637 q 271 622 251 604 q 231 585 203 580 q 190 576 190 569 q 190 564 212 558 q 234 552 262 552 l 271 552 q 279 552 284 538 l 285 535 q 285 527 275 519 q 264 511 253 511 q 232 511 180 554 q 175 549 175 543 q 175 533 184 515 q 193 497 193 489 l 191 481 l 192 465 q 192 447 179 441 l 169 441 q 150 454 150 475 q 150 485 152 503 q 155 521 155 528 q 155 534 153 542 q 141 534 118 500 q 95 466 70 466 q 68 466 63 470 q 58 474 58 482 q 58 493 68 503 q 78 513 107 531 q 136 550 136 559 q 136 566 93 592 q 50 617 50 633 q 50 636 57 646 q 64 656 75 656 q 91 656 110 624 q 128 593 140 593 q 147 593 150 599 q 153 606 153 609 l 152 640 q 152 686 182 686 l 188 686 q 206 686 206 672 q 206 666 194 644 q 181 622 181 606 q 181 599 182 595 q 203 603 228 627 q 253 651 263 651 z"},"Y":{"x_min":0,"x_max":570,"ha":570,"o":"m 559 661 q 560 656 560 649 q 560 633 545 629 q 521 603 481 534 q 441 465 389 389 q 337 313 328 295 q 319 276 319 265 l 319 252 l 318 161 q 318 106 323 70 q 329 34 329 31 q 329 1 290 1 q 274 1 257 5 q 255 11 255 11 q 255 14 257 21 q 259 29 259 34 q 259 41 260 48 q 261 55 264 67 q 267 79 267 91 l 268 121 l 268 155 q 268 207 263 238 q 258 270 244 295 q 229 320 188 381 q 146 441 112 492 q 79 543 65 562 q 52 580 44 584 q 39 595 24 601 q 20 610 20 617 q 20 635 34 640 q 47 659 61 662 q 75 666 80 668 q 88 635 100 623 q 111 612 131 575 q 151 539 168 527 q 171 513 175 513 l 178 513 l 178 511 q 178 500 196 478 q 214 455 231 424 q 249 392 273 364 q 297 335 305 335 q 306 335 306 336 q 311 336 366 409 q 421 482 465 618 q 475 647 486 658 q 497 668 527 672 l 530 673 q 533 673 542 668 q 552 663 559 661 z"},"c":{"x_min":0,"x_max":425,"ha":425,"o":"m 382 74 q 405 60 405 36 q 405 5 388 5 l 384 5 q 379 5 352 0 q 325 -6 293 -6 l 281 -6 l 246 -8 q 227 -8 211 -4 q 203 0 174 9 q 144 18 133 25 q 123 31 106 46 q 90 61 78 78 q 65 95 57 115 q 48 134 44 156 q 40 177 40 200 q 40 269 64 317 q 89 365 144 403 q 152 407 167 418 q 183 428 191 432 q 200 436 243 443 q 286 451 330 451 l 348 451 q 357 453 368 453 q 391 453 391 433 q 391 430 390 423 q 388 416 388 412 l 389 375 q 381 373 378 373 q 366 373 349 381 q 330 398 318 398 l 311 398 q 305 398 284 402 q 263 406 246 406 q 233 406 214 394 q 208 397 204 397 l 202 397 q 200 397 196 393 q 179 378 151 368 q 129 360 115 332 q 100 303 86 289 q 82 258 82 232 q 82 172 95 146 q 108 120 132 99 q 156 77 165 67 l 179 67 q 184 53 202 53 q 212 53 232 49 q 252 44 262 44 l 277 45 l 288 45 q 313 45 326 49 q 339 54 357 57 q 376 61 382 74 z"},"!":{"x_min":0,"x_max":308,"ha":308,"o":"m 198 715 q 185 598 179 433 q 174 267 167 198 l 165 198 q 160 198 155 190 q 149 182 147 182 l 146 182 q 145 182 143 183 q 141 184 140 184 q 139 184 138 183 q 137 182 136 182 q 129 190 129 203 q 129 212 132 221 q 145 265 145 333 l 137 466 q 132 538 127 581 q 122 624 122 639 q 122 657 123 668 q 124 679 126 687 q 129 695 136 702 q 142 708 158 715 q 174 722 182 722 q 188 722 198 715 z m 179 34 q 179 23 159 -15 l 156 -15 q 151 -15 145 -21 q 140 -26 136 -27 q 101 -14 101 5 l 101 13 q 101 54 136 62 l 136 63 l 137 63 q 149 63 179 39 z"},"/":{"x_min":0,"x_max":481,"ha":481,"o":"m 460 699 q 460 688 448 668 q 436 648 431 643 q 430 642 427 632 l 422 607 l 368 509 q 359 493 358 490 l 339 446 q 302 376 259 299 l 190 178 q 155 115 141 84 q 123 45 123 26 l 123 24 l 120 24 q 113 24 105 5 q 93 -26 82 -38 q 70 -50 54 -50 q 20 -50 20 -33 q 20 -29 21 -27 q 36 -17 37 -3 q 38 11 50 21 q 61 32 68 43 q 76 53 96 97 q 116 141 123 152 q 128 155 133 161 q 138 167 142 176 q 146 184 149 195 q 152 204 159 214 q 166 224 176 241 l 200 280 l 200 294 q 231 347 261 390 l 261 402 q 273 414 277 425 q 281 435 292 453 q 302 471 302 479 q 302 484 299 489 q 303 492 315 511 q 327 530 327 533 q 327 537 337 560 q 347 581 353 599 q 360 618 364 642 q 364 643 377 663 q 391 682 397 690 q 402 697 421 710 q 422 711 427 711 q 432 711 460 704 z"},"[":{"x_min":0,"x_max":420,"ha":420,"o":"m 293 718 q 300 707 300 701 q 300 697 296 692 q 288 690 286 690 q 281 690 271 692 q 261 695 256 695 q 252 695 240 691 l 240 684 l 233 680 q 222 341 222 186 l 221 77 q 221 -7 237 -21 q 236 -27 232 -32 q 227 -37 227 -38 q 227 -48 249 -48 l 272 -47 l 279 -47 q 289 -51 289 -58 q 289 -62 285 -68 q 275 -72 271 -72 q 264 -72 253 -70 q 243 -69 239 -69 q 234 -69 222 -71 q 219 -77 219 -82 q 218 -82 217 -83 q 213 -83 208 -73 q 191 -84 179 -84 l 175 -85 q 163 -85 155 -65 q 175 80 175 370 l 172 703 q 186 725 199 725 q 200 725 216 723 q 224 719 234 719 q 241 719 253 720 q 266 721 272 721 q 287 721 293 718 z"},"6":{"x_min":0,"x_max":495,"ha":495,"o":"m 305 417 q 309 414 321 403 q 378 393 409 349 q 441 305 441 236 q 441 213 434 188 q 427 164 413 140 q 398 116 378 94 q 357 70 331 51 q 320 43 314 41 l 298 34 q 281 22 260 13 q 238 4 212 0 q 192 -4 185 -4 l 153 0 l 150 -1 q 133 -1 102 16 q 72 33 48 76 q 25 119 25 172 q 25 205 41 274 q 57 343 85 387 q 80 394 80 400 q 141 504 225 616 q 260 664 260 672 q 260 675 259 676 q 270 696 285 696 l 292 696 q 298 696 307 698 q 315 700 319 700 l 343 688 l 344 688 q 344 686 346 678 q 348 671 348 667 q 348 662 334 651 q 320 640 319 622 l 308 618 l 308 610 l 300 611 q 272 611 243 571 q 215 530 215 514 q 214 512 208 509 q 202 505 198 502 q 188 472 166 445 q 170 444 173 438 q 175 431 178 428 q 201 424 244 422 q 288 420 305 417 z m 228 43 q 271 43 296 52 q 320 60 342 97 q 364 134 375 167 q 387 199 387 219 q 387 239 379 263 q 371 287 364 298 q 351 321 349 326 q 342 340 325 351 q 308 362 278 373 q 238 386 223 386 q 208 386 197 379 q 169 370 145 365 q 121 360 100 311 q 80 262 80 203 l 83 174 q 83 161 88 143 q 92 126 100 114 q 108 102 114 94 l 131 77 q 140 68 156 59 q 172 49 188 46 q 203 43 228 43 z"},"r":{"x_min":0,"x_max":343,"ha":343,"o":"m 343 378 q 343 373 336 362 q 329 350 327 340 q 324 330 314 320 l 302 320 q 276 335 264 335 q 255 335 235 325 q 215 314 197 288 q 178 262 173 247 q 170 230 157 212 l 157 196 q 148 172 149 161 q 151 150 151 144 q 151 138 150 134 q 144 128 144 122 q 144 110 149 79 q 154 48 166 32 l 166 28 q 166 6 148 6 l 138 -4 q 126 -5 112 -5 q 94 -5 80 0 l 80 2 q 80 15 88 41 q 96 66 96 79 l 99 194 q 99 328 84 430 q 83 440 83 442 q 83 460 101 470 q 119 480 132 480 q 144 480 154 474 q 155 472 157 467 q 160 462 160 461 l 160 455 q 160 448 152 422 q 143 397 143 358 l 144 298 l 144 289 q 144 282 157 279 q 178 324 206 350 q 235 376 277 388 q 319 400 330 400 q 343 391 343 384 z"},"2":{"x_min":0,"x_max":561,"ha":561,"o":"m 510 85 q 511 80 511 72 q 511 61 502 38 q 492 15 492 9 l 492 4 q 492 2 491 2 q 489 2 481 6 q 473 11 465 12 q 460 16 457 20 q 454 14 445 16 q 437 18 428 21 q 420 25 389 27 q 358 29 324 29 q 271 29 212 22 q 152 16 111 8 q 69 -1 59 -7 q 55 -8 48 -8 q 32 -8 23 8 q 14 23 14 28 q 14 35 20 42 q 25 49 45 62 q 66 76 73 81 q 78 89 101 91 q 124 94 135 96 q 133 121 133 123 q 133 127 134 128 l 137 128 q 141 128 141 121 q 141 113 145 110 q 258 187 337 288 q 416 389 416 473 l 416 475 l 418 508 q 418 523 413 538 q 409 553 400 567 q 391 582 378 594 q 365 607 349 617 q 333 627 320 632 q 307 636 230 636 q 222 636 212 631 q 202 625 197 625 l 193 625 q 143 600 142 583 q 135 578 133 575 q 130 577 121 577 q 112 577 108 563 q 106 562 103 562 q 93 562 86 574 q 78 585 78 603 q 78 625 93 634 q 108 642 144 648 q 181 654 219 667 q 256 680 304 680 q 321 680 329 677 q 336 675 343 675 l 354 675 q 398 675 438 633 q 477 591 477 525 q 477 431 402 324 q 326 218 171 91 q 172 89 172 86 q 172 83 171 80 q 170 76 170 74 q 170 62 182 65 l 391 74 l 415 72 q 433 72 440 76 q 446 81 451 81 l 461 80 q 463 80 466 85 q 481 91 489 91 q 497 91 510 85 z"},"{":{"x_min":0,"x_max":440,"ha":440,"o":"m 186 438 l 194 462 l 186 520 q 187 533 187 555 l 186 593 q 186 615 196 653 q 207 690 215 703 q 224 715 238 719 q 251 722 281 722 q 352 722 352 712 q 352 708 346 703 q 339 697 328 694 l 325 683 l 291 687 l 286 687 q 269 687 245 677 q 251 640 251 635 l 247 550 l 247 517 q 247 445 249 404 q 251 363 251 361 q 251 348 240 330 q 228 312 208 298 l 250 256 q 245 168 245 156 l 247 112 q 247 104 241 77 q 235 49 235 27 l 235 23 l 236 -12 q 233 -24 233 -32 q 233 -50 245 -50 q 263 -50 293 -35 q 323 -21 326 -21 q 331 -21 335 -29 q 339 -37 339 -42 q 339 -55 310 -69 q 282 -83 243 -83 l 221 -82 l 209 -84 q 198 -68 189 -25 q 180 19 180 29 q 180 37 183 64 q 185 91 185 113 l 184 166 q 184 173 186 185 q 187 198 187 203 q 187 235 167 259 q 148 283 117 283 l 97 282 q 84 282 84 294 q 84 303 112 313 l 190 342 l 196 396 z"},"9":{"x_min":0,"x_max":508,"ha":508,"o":"m 308 273 q 298 275 293 275 q 279 275 253 267 q 228 259 214 259 q 206 259 167 267 q 128 275 103 297 q 77 318 60 356 q 43 393 43 437 q 43 463 48 483 l 60 521 q 65 546 72 555 q 101 590 115 605 q 136 628 151 638 l 185 654 q 202 665 222 671 q 243 677 269 678 l 314 685 q 359 685 415 642 q 470 598 470 488 q 470 463 464 433 q 458 396 442 357 q 423 310 402 268 q 382 228 361 194 q 341 161 320 134 q 300 108 279 89 l 253 57 q 247 49 233 39 q 217 26 216 16 q 174 -42 159 -51 l 155 -51 q 147 -51 135 -43 q 123 -35 115 -33 q 90 -24 90 -9 q 90 -3 97 5 q 104 13 139 36 q 207 81 278 160 q 350 240 383 315 q 416 390 416 473 q 416 532 397 571 q 378 609 339 628 q 300 646 265 646 q 248 646 234 644 q 220 641 209 636 l 181 624 q 166 618 153 606 q 140 594 129 579 q 118 562 111 543 q 103 523 99 500 q 95 476 95 450 q 95 434 96 425 q 104 422 104 416 l 104 409 q 104 396 113 379 q 122 362 133 349 q 144 335 157 325 q 169 316 176 316 l 199 316 q 203 316 204 310 q 204 303 208 303 l 226 306 q 233 306 249 305 q 264 303 272 303 l 278 303 q 283 309 290 313 q 296 318 308 318 l 316 320 q 326 322 332 324 q 337 326 338 326 q 340 326 343 323 q 346 319 346 315 q 346 304 330 294 q 330 294 323 296 q 310 292 308 273 z"}," ":{"x_min":0,"x_max":255,"ha":255,"o":""},"I":{"x_min":0,"x_max":300,"ha":300,"o":"m 147 -1 q 100 3 100 19 q 100 24 104 30 q 107 36 109 44 q 112 52 116 98 q 120 145 123 239 q 126 334 126 441 l 119 601 l 119 602 q 119 606 115 613 q 111 621 111 624 q 111 625 119 643 q 127 661 148 667 q 169 673 172 673 q 177 673 178 667 q 180 662 183 660 q 193 652 193 632 q 193 630 191 621 q 179 539 179 440 l 180 403 l 176 201 q 176 110 188 69 q 200 28 200 11 q 200 4 186 -2 q 172 -8 163 -8 l 160 -8 q 151 -8 147 -1 z"},"H":{"x_min":0,"x_max":770,"ha":770,"o":"m 587 623 q 586 625 586 633 q 586 648 614 662 q 643 676 646 676 l 650 676 q 658 676 664 668 q 670 660 670 648 q 670 641 667 633 q 656 629 656 604 l 658 513 q 658 318 652 201 q 646 83 646 80 q 646 58 662 43 q 660 29 658 19 q 657 9 654 8 q 639 5 620 -4 q 601 -14 595 -14 q 591 -14 582 -6 l 576 29 q 597 70 597 136 l 597 153 l 598 308 q 598 312 592 321 q 585 330 577 331 q 569 333 558 333 l 533 330 l 481 330 q 397 330 376 329 q 355 327 346 323 q 336 320 335 320 q 327 320 323 327 q 304 320 288 320 l 249 322 q 173 322 173 296 l 173 284 l 172 245 l 173 202 l 171 127 q 171 99 178 64 q 185 29 185 18 l 184 -1 l 167 -12 q 150 -4 129 -4 q 118 -4 113 -5 q 107 1 104 1 q 103 1 102 0 q 100 8 100 15 q 100 17 101 28 q 113 123 115 246 l 120 489 l 123 572 q 123 620 108 675 l 101 682 q 107 682 107 688 l 107 695 q 107 703 113 704 q 129 723 146 723 q 162 723 193 709 q 171 451 171 426 q 171 423 172 411 q 173 399 173 398 l 172 393 q 172 380 186 370 q 199 359 214 359 l 220 359 q 228 359 242 356 q 257 354 264 354 q 268 354 302 358 q 335 363 351 363 q 395 363 427 361 q 460 359 461 359 q 467 359 470 366 q 490 361 508 361 l 555 361 q 560 366 565 366 q 583 369 591 380 q 598 392 598 398 l 598 426 l 599 522 l 599 545 q 599 620 587 623 z"},"4":{"x_min":0,"x_max":570,"ha":570,"o":"m 532 203 q 540 194 540 182 q 540 175 526 152 q 512 130 505 130 q 500 130 496 134 q 490 125 482 125 l 475 126 l 470 125 q 465 125 457 131 q 450 136 446 136 l 424 135 q 417 135 404 138 q 391 141 388 141 l 385 140 l 381 140 q 370 140 365 132 q 361 124 361 91 q 361 32 380 23 l 380 19 q 380 -5 342 -5 l 335 -5 q 333 -6 328 -6 q 324 -6 317 -4 q 309 -2 305 -2 l 305 0 q 305 3 311 40 q 317 76 319 126 q 295 141 269 141 q 258 141 236 139 q 215 136 204 136 l 199 136 q 192 137 179 137 l 151 134 l 140 134 q 111 134 100 126 q 85 123 78 123 q 73 123 59 125 q 44 126 35 126 l 24 126 q 22 139 22 152 q 22 164 32 183 q 42 202 60 222 q 155 354 210 439 q 265 524 342 676 q 344 680 350 678 q 357 677 364 676 q 370 680 371 690 q 371 700 374 703 l 373 699 q 373 696 380 691 q 386 687 389 685 q 394 691 402 691 q 420 675 420 666 q 420 664 418 660 q 384 632 336 564 l 227 412 q 167 327 132 267 q 96 208 96 192 q 96 188 100 184 q 104 181 110 182 q 115 184 118 184 q 122 184 129 178 l 139 190 q 145 188 149 183 q 154 178 156 178 l 191 182 q 208 184 236 184 q 263 184 280 185 q 297 186 315 190 q 331 213 331 288 q 331 318 326 353 q 322 387 322 396 q 322 424 326 432 q 330 440 342 452 q 335 458 335 466 q 361 451 367 451 q 370 451 371 452 q 381 459 392 461 l 397 448 q 375 319 375 249 q 375 222 380 190 q 390 188 411 188 l 461 190 q 490 190 495 201 q 500 201 510 199 q 521 197 524 197 q 528 197 532 203 z"},"~":{"x_min":0,"x_max":833,"ha":833,"o":"m 747 306 q 649 236 558 236 q 530 236 503 242 q 477 249 417 270 q 356 292 327 297 q 298 303 275 303 q 197 303 87 225 l 87 290 q 190 361 276 361 q 313 361 348 352 q 382 342 449 318 q 517 293 559 293 q 638 293 747 370 z"},"D":{"x_min":0,"x_max":657,"ha":657,"o":"m 447 659 q 525 625 569 557 q 612 488 612 403 q 612 371 604 338 q 595 305 578 273 q 562 241 537 210 q 513 179 482 152 q 450 124 413 100 q 375 75 332 55 l 297 33 l 254 19 q 221 8 220 8 q 217 8 211 10 q 208 5 201 0 q 194 -4 193 -4 l 179 -4 q 175 -13 163 -19 q 151 -24 145 -24 q 141 -24 131 -22 q 121 -21 115 -21 l 112 -21 q 101 -21 101 2 q 101 5 104 19 q 121 106 121 204 l 119 353 l 120 500 q 120 557 117 581 q 114 604 114 647 q 114 663 115 666 q 123 669 123 676 l 140 676 l 143 684 q 170 669 200 669 q 210 669 217 670 l 231 673 q 234 673 245 671 q 256 669 260 669 l 271 671 q 288 673 304 673 q 355 673 390 668 q 425 663 425 659 q 431 657 433 657 q 436 657 447 659 z m 186 95 q 184 83 184 78 q 184 42 203 42 q 234 42 274 56 q 314 69 354 96 q 375 110 391 117 q 407 124 450 166 q 478 193 499 223 q 519 254 532 288 q 552 338 552 360 q 552 434 535 487 q 518 539 477 576 q 437 612 385 625 q 333 637 228 637 l 224 627 l 220 627 q 213 627 207 630 q 175 598 175 351 l 179 109 l 178 105 q 178 98 186 95 z"},"^":{"x_min":0,"x_max":1000,"ha":1000,"o":"m 793 440 l 716 440 l 500 654 l 284 440 l 206 440 l 460 712 l 539 712 z"},"0":{"x_min":0,"x_max":664,"ha":664,"o":"m 334 1 q 276 -8 252 -8 q 244 -8 227 -4 q 210 -1 194 1 q 179 3 174 6 q 166 11 157 19 q 138 37 136 38 q 118 49 103 66 q 87 84 76 107 q 64 131 56 160 q 47 189 43 223 q 39 257 39 296 q 39 335 45 372 q 51 408 62 441 q 72 470 79 485 l 115 559 q 125 580 150 604 q 158 610 190 634 q 207 646 231 652 l 266 661 q 329 673 360 673 q 371 673 381 671 l 390 670 l 412 671 q 448 671 481 656 q 515 641 542 609 q 570 578 585 540 q 600 501 607 482 q 615 462 619 438 q 624 414 624 387 q 624 368 621 346 q 619 323 614 297 q 609 271 602 238 q 598 223 583 196 q 569 168 560 156 l 536 128 q 513 99 497 82 q 481 64 470 57 q 458 50 441 37 q 423 24 415 22 q 406 21 386 11 q 366 2 362 2 q 360 2 356 12 q 342 10 336 10 z m 294 632 q 284 630 267 627 q 244 624 234 620 q 226 617 202 600 q 183 586 173 572 q 161 555 152 539 q 142 521 137 503 q 130 476 123 455 q 112 422 106 388 q 101 353 101 316 q 101 173 162 107 q 222 40 291 40 q 306 40 328 50 q 350 59 359 59 q 360 59 370 57 q 381 55 382 55 q 405 55 452 89 q 500 123 529 198 q 557 274 557 357 q 557 475 498 553 q 439 632 356 632 z"},"F":{"x_min":0,"x_max":525,"ha":525,"o":"m 206 662 l 368 666 l 412 664 q 423 664 449 669 q 476 675 491 675 q 525 675 525 644 q 525 638 522 632 q 520 627 514 623 q 509 618 504 618 l 489 617 q 479 616 471 616 q 469 616 460 618 q 384 633 293 633 q 273 633 241 632 q 209 630 204 628 q 200 626 194 622 q 179 560 179 524 l 179 518 q 173 480 173 456 q 173 438 176 427 l 182 405 q 184 396 190 389 q 196 382 206 382 l 218 383 q 225 383 228 378 q 230 374 256 374 q 272 374 288 376 q 303 377 311 376 q 319 375 323 375 q 337 375 346 382 l 372 379 q 380 384 427 387 q 435 378 435 365 q 435 352 425 340 q 415 328 359 328 q 335 328 282 333 q 228 338 197 338 q 179 328 179 320 q 179 318 180 317 q 167 271 167 213 l 171 130 q 171 111 166 109 q 172 96 177 70 q 182 43 182 29 q 182 14 174 6 q 167 -2 161 -2 q 157 -2 152 4 q 147 -2 135 -7 q 132 -6 120 -3 q 100 1 100 22 q 100 27 103 37 l 105 45 l 104 61 q 104 64 107 72 q 111 81 111 87 q 116 137 116 201 l 115 277 l 119 500 q 119 564 115 589 q 111 613 111 623 q 111 643 118 664 q 138 670 159 673 l 162 679 l 169 675 l 176 677 q 186 677 206 662 z"},"`":{"x_min":0,"x_max":500,"ha":500,"o":"m 311 607 q 369 573 369 555 q 369 551 362 549 q 349 559 292 574 q 234 590 189 603 q 183 601 173 597 q 164 593 161 593 l 160 593 l 161 596 q 161 600 151 603 q 148 599 145 599 q 143 599 138 601 q 134 603 131 603 l 128 603 q 130 607 94 617 l 92 633 q 92 648 105 662 q 119 675 129 675 q 134 675 147 667 q 170 667 217 638 q 281 607 301 607 z"},"k":{"x_min":0,"x_max":508,"ha":508,"o":"m 173 734 q 173 729 172 724 q 166 721 165 717 q 164 712 159 693 q 154 674 151 615 q 148 557 148 530 l 148 442 l 147 229 q 147 182 148 122 q 149 62 154 52 q 158 41 161 37 q 160 4 144 4 l 134 5 q 131 5 124 2 q 116 0 109 0 q 99 0 92 9 q 85 17 85 31 q 85 35 88 39 q 99 39 99 221 l 96 506 l 101 659 l 98 684 q 94 710 94 728 q 94 738 97 749 q 133 767 146 767 q 152 767 157 762 q 161 757 170 740 q 173 740 173 738 z m 420 391 q 417 392 411 392 q 404 392 400 390 q 396 389 362 356 l 295 292 q 263 261 247 244 q 232 227 232 221 q 232 214 280 184 l 359 131 q 397 106 422 94 q 447 83 470 81 q 483 79 499 61 q 508 50 508 40 q 508 29 497 22 q 486 15 483 11 q 475 -8 458 -8 q 454 -8 446 -6 l 446 -5 q 446 0 429 16 q 413 31 374 58 q 336 84 259 132 q 182 180 178 181 l 164 182 q 164 218 193 244 q 212 249 222 266 q 223 265 226 265 q 230 265 237 273 q 243 281 266 303 q 288 326 303 342 q 317 357 329 374 l 348 400 q 355 411 363 429 q 371 429 384 442 q 397 455 408 455 l 411 455 q 414 452 419 452 l 423 452 q 434 444 434 428 q 434 406 420 391 z"},"u":{"x_min":0,"x_max":561,"ha":561,"o":"m 414 447 q 422 453 438 457 l 468 463 l 471 463 q 481 463 481 438 l 465 385 q 457 359 454 335 q 450 311 450 289 q 450 267 454 241 q 457 216 471 198 q 472 196 472 192 q 472 187 464 175 q 456 163 456 143 q 456 132 460 108 q 464 84 465 78 q 465 73 472 68 q 479 62 479 60 q 479 56 471 53 q 469 29 469 24 q 469 6 474 4 q 440 -10 424 -10 q 404 -10 404 7 q 404 12 407 21 q 406 24 406 29 q 406 38 408 43 q 411 49 411 54 q 411 64 408 82 q 405 99 390 99 q 379 99 348 71 q 302 30 266 12 q 251 7 246 2 q 177 -9 174 -9 q 162 -9 142 5 q 123 19 111 33 q 99 46 90 75 q 81 104 81 139 q 81 155 93 247 q 105 339 112 379 q 119 419 119 421 q 119 425 116 433 l 112 441 l 112 443 q 112 446 117 448 q 122 449 135 456 q 149 463 157 463 q 161 463 171 459 q 182 456 189 456 l 192 456 q 201 449 204 441 l 194 429 q 166 404 158 354 l 142 249 q 133 194 133 171 q 133 103 159 71 q 186 39 212 39 l 220 40 l 235 39 q 242 39 264 50 q 285 61 327 90 q 369 118 378 132 q 387 145 394 166 q 400 187 404 213 q 407 240 407 273 q 407 355 404 384 q 400 412 391 418 q 385 423 385 444 q 393 447 396 449 q 399 451 402 451 q 407 451 414 447 z"},"]":{"x_min":0,"x_max":420,"ha":420,"o":"m 264 721 q 250 248 250 181 q 250 69 254 14 l 258 -41 q 258 -54 251 -62 q 245 -71 221 -87 q 221 -76 210 -76 q 209 -76 196 -73 q 182 -70 169 -70 q 156 -70 128 -73 q 101 -77 87 -77 q 65 -77 65 -72 q 65 -70 70 -64 q 75 -59 94 -56 q 113 -53 120 -53 l 172 -55 q 178 -55 185 -50 q 193 -45 191 -5 q 188 34 194 202 q 200 369 200 417 l 199 514 q 199 557 202 602 q 205 647 205 656 q 205 693 175 693 q 166 693 147 689 q 128 685 119 685 q 89 685 89 696 q 89 721 143 721 q 165 721 186 717 l 190 724 q 194 720 199 720 q 206 720 210 726 q 215 732 225 737 q 235 742 244 742 q 250 742 253 741 z"},"U":{"x_min":0,"x_max":731,"ha":731,"o":"m 680 669 l 684 669 q 693 669 700 659 q 707 650 710 650 l 713 650 q 721 650 721 641 q 721 635 713 619 q 710 618 708 603 q 706 584 679 483 q 657 399 640 346 q 619 283 598 241 l 569 188 q 567 181 566 174 q 563 161 525 113 q 495 74 458 44 q 393 -11 377 -11 q 370 -11 361 -8 q 353 -4 350 -4 q 333 -14 327 -14 q 324 -14 322 -13 q 298 -16 287 -16 q 249 -16 206 15 q 164 46 147 112 q 131 179 124 287 q 117 396 112 445 q 108 494 102 539 q 96 583 94 586 q 91 588 86 588 q 80 620 80 624 q 80 631 83 638 q 87 645 90 648 q 93 651 105 654 q 117 657 127 661 q 136 665 140 668 q 143 671 144 671 q 146 671 152 664 q 158 658 166 652 q 175 646 175 629 q 175 622 172 613 q 169 603 169 583 l 170 550 l 169 515 q 169 396 176 320 q 183 245 189 213 q 195 181 207 135 q 219 90 242 69 q 266 47 271 45 q 275 42 293 42 q 295 26 332 26 q 364 26 401 45 q 438 64 458 89 q 478 114 494 145 q 510 175 525 199 q 541 224 563 271 q 585 317 604 392 l 607 405 q 612 417 614 440 q 615 463 624 469 q 647 562 647 590 q 647 606 645 617 q 642 627 642 640 q 642 661 657 662 q 672 664 680 669 z"},"o":{"x_min":0,"x_max":585,"ha":585,"o":"m 63 301 q 139 446 337 446 q 368 446 392 442 q 416 439 437 431 q 457 423 475 410 q 492 397 509 377 q 525 358 541 331 q 550 316 550 267 q 550 155 474 77 q 398 -2 286 -2 l 282 -2 q 259 3 257 3 q 255 3 254 2 q 250 -5 224 -5 q 189 -5 142 15 q 95 35 65 76 q 35 117 35 162 q 35 180 37 197 q 39 214 42 230 q 46 246 51 260 l 63 288 z m 493 221 l 493 234 q 493 315 442 365 q 391 414 307 414 q 289 414 272 410 q 256 406 254 405 q 251 403 245 394 q 239 385 237 384 q 234 382 229 382 l 204 385 q 199 385 197 376 q 160 373 127 321 q 94 269 94 212 q 94 200 99 160 q 104 121 129 95 q 155 70 191 52 q 228 33 250 33 q 256 33 262 35 l 266 36 l 286 36 q 352 36 375 56 q 377 58 378 58 q 381 58 387 55 q 441 102 467 153 q 493 204 493 221 z"},"N":{"x_min":0,"x_max":818,"ha":818,"o":"m 728 664 l 719 633 q 708 594 703 547 q 698 499 697 435 q 696 372 693 325 q 689 279 689 250 l 690 197 l 689 160 q 689 132 696 96 q 703 59 703 47 q 703 19 694 0 q 685 -18 673 -18 q 653 -18 612 36 l 612 46 q 503 157 432 247 q 360 336 276 436 q 192 535 190 535 q 185 535 180 527 q 175 518 169 459 q 162 400 162 317 q 162 226 171 110 l 178 96 l 178 85 q 178 69 174 65 l 174 64 q 174 61 179 46 q 184 32 184 19 l 184 13 q 172 -5 143 -5 q 137 -5 135 3 q 126 2 106 -6 q 100 3 100 24 q 100 43 107 89 q 112 89 113 93 q 115 98 116 118 q 117 138 119 153 q 112 162 112 167 l 113 170 q 122 176 122 191 l 124 249 l 123 327 q 123 378 127 399 q 131 420 131 427 q 131 435 129 451 q 128 468 128 470 q 128 504 131 525 q 134 546 134 576 l 130 593 q 132 598 132 616 q 132 639 131 652 q 134 657 140 662 q 145 667 147 669 q 150 672 151 672 q 152 672 164 676 q 174 675 198 638 q 240 574 285 530 q 284 530 284 528 q 284 522 337 465 q 390 407 461 319 l 505 265 q 528 237 551 210 q 574 184 605 151 q 636 118 641 116 q 646 114 649 114 q 653 114 653 120 l 652 154 l 654 217 l 653 302 q 653 352 655 434 l 657 506 q 657 534 651 541 q 650 544 650 548 q 650 553 651 560 q 653 568 653 571 q 653 575 652 577 q 653 583 653 596 q 653 607 650 615 q 647 623 647 635 q 647 650 659 660 q 670 669 690 669 l 700 668 l 715 668 q 721 668 728 664 z"},"+":{"x_min":0,"x_max":500,"ha":500,"o":"m 427 369 q 438 356 438 345 q 438 333 429 327 q 419 320 419 313 q 414 313 403 306 q 393 299 391 299 q 387 299 363 305 q 339 311 307 311 l 286 311 l 281 312 q 274 312 272 304 q 269 296 269 266 q 269 242 276 214 q 282 186 282 179 q 282 178 275 167 q 267 156 267 150 q 260 150 254 141 q 247 132 236 132 q 225 132 211 142 l 212 149 l 211 173 q 211 186 218 195 q 215 218 215 229 q 215 237 217 246 l 220 253 l 222 306 l 116 304 q 85 290 78 290 q 74 290 68 297 q 62 304 62 309 l 63 312 q 69 317 81 332 q 93 347 100 352 q 107 356 123 354 q 138 353 145 353 l 152 353 l 156 360 q 162 355 178 355 l 201 356 l 208 355 q 218 355 222 362 q 226 369 226 392 q 226 408 221 414 l 221 430 q 224 441 226 455 q 219 472 219 481 q 219 503 244 503 q 254 503 263 500 q 275 506 279 506 q 280 506 284 504 q 285 501 285 497 q 285 480 280 459 q 274 438 274 419 l 275 384 l 275 369 q 275 361 279 358 q 283 356 297 355 q 310 354 314 354 l 317 361 q 341 354 351 354 q 393 354 393 363 l 392 366 q 395 366 403 369 q 411 372 416 373 l 416 366 l 423 362 q 427 365 427 369 z"},"G":{"x_min":0,"x_max":698,"ha":698,"o":"m 632 655 q 648 645 648 610 q 648 571 624 571 q 619 571 611 574 q 604 583 588 595 q 572 607 558 612 l 527 624 l 518 624 q 502 624 470 631 q 437 637 421 637 q 397 637 353 630 q 310 622 273 609 q 264 600 247 589 l 231 581 q 224 576 216 567 l 205 567 q 167 546 131 468 q 95 389 95 325 q 95 247 142 183 q 188 118 273 82 q 278 82 288 73 q 312 53 431 35 l 442 45 q 452 40 460 40 q 463 40 470 45 q 480 45 484 38 q 500 44 511 44 q 515 44 530 42 q 531 46 537 52 q 543 83 543 108 l 543 115 l 544 183 q 544 215 537 261 q 529 275 529 283 q 529 303 542 303 l 588 302 q 597 302 601 306 q 613 306 613 296 q 613 295 611 288 q 597 229 597 148 q 597 116 610 42 q 601 32 600 31 q 597 21 591 4 q 586 -14 572 -15 q 565 -9 551 -4 q 547 -5 542 -5 q 539 -5 521 -6 q 504 -8 502 -9 q 500 -11 491 -19 l 488 -19 q 484 -19 468 -21 q 452 -22 438 -22 q 414 -22 401 -19 l 380 -14 q 379 -14 375 -17 q 370 -19 366 -19 l 364 -19 q 356 -12 350 -8 q 290 -8 211 40 q 132 87 89 147 q 45 208 45 306 q 45 367 69 435 q 93 503 106 503 l 107 503 l 107 505 q 107 508 108 513 q 110 517 110 519 l 110 521 q 119 522 128 531 l 128 542 q 198 621 288 650 q 378 680 446 680 q 451 680 501 675 q 552 669 590 662 q 628 655 631 655 z"},"q":{"x_min":0,"x_max":525,"ha":525,"o":"m 469 467 l 469 463 q 469 458 472 450 q 475 442 475 440 q 475 436 462 426 q 450 417 447 413 q 444 410 437 341 q 429 272 424 163 q 420 54 420 -87 l 419 -162 q 419 -201 422 -227 q 426 -252 426 -261 q 426 -275 423 -287 q 421 -300 417 -308 l 408 -322 q 403 -330 400 -334 q 397 -339 395 -340 q 394 -341 391 -341 q 386 -341 369 -330 l 368 -330 q 364 -330 354 -322 q 344 -314 342 -310 q 340 -306 340 -295 q 340 -288 347 -265 q 369 -190 369 -122 l 366 0 q 366 3 367 8 q 368 14 368 16 q 368 22 363 22 l 362 22 q 355 22 344 13 q 334 4 326 1 q 318 -3 297 -3 q 276 -3 235 2 q 194 7 171 14 q 148 20 115 40 q 81 60 67 81 q 53 101 44 128 q 35 156 35 185 q 35 241 66 290 q 96 339 154 375 q 159 376 163 383 q 172 399 238 414 l 296 429 l 297 429 q 303 429 356 449 l 363 441 q 385 452 385 457 q 385 466 382 477 q 379 488 379 491 q 379 500 395 513 q 404 514 419 521 q 434 527 440 529 q 440 524 447 519 q 453 515 453 510 q 453 509 451 502 q 449 496 449 487 q 442 482 440 471 q 446 466 457 466 q 465 466 469 467 z m 363 44 q 381 290 381 333 q 381 371 367 386 q 354 402 322 402 q 283 402 236 389 q 188 375 150 340 q 112 304 98 270 q 85 236 85 202 q 85 158 114 124 q 143 90 185 70 q 227 51 306 51 q 312 51 317 53 q 323 55 334 70 q 338 51 357 51 l 360 51 z"},"d":{"x_min":0,"x_max":522,"ha":522,"o":"m 452 -61 l 408 -122 l 395 -122 q 386 -116 379 -116 q 373 -103 366 -77 q 372 -62 372 -48 l 373 7 q 373 39 363 64 q 360 62 354 62 q 347 61 344 59 q 296 24 262 14 q 229 5 194 5 q 140 5 100 31 q 60 57 47 97 q 35 138 35 161 q 35 200 39 215 q 42 229 57 260 q 72 291 81 308 q 90 326 118 351 q 146 375 180 396 q 210 405 243 420 q 277 435 289 436 l 292 429 q 313 442 331 442 l 332 442 q 344 442 344 461 q 344 523 338 593 q 333 663 330 670 q 327 678 315 683 q 312 692 312 705 q 312 742 337 742 q 360 758 371 758 q 379 758 390 750 q 401 741 403 741 q 405 741 405 735 q 405 732 401 718 q 396 704 396 691 q 386 684 386 666 l 387 641 q 387 565 393 520 q 398 474 398 471 q 398 469 397 465 q 396 460 396 458 q 396 449 404 439 l 411 442 q 413 435 425 432 q 449 427 446 412 q 444 397 443 388 l 439 388 q 434 388 426 385 q 418 382 416 382 q 412 382 408 384 q 408 385 407 385 q 402 385 402 289 q 402 230 411 157 q 419 146 424 138 q 421 120 421 105 q 421 86 425 56 q 428 25 428 13 l 427 1 q 427 -3 431 -5 q 436 -7 436 -9 l 436 -10 l 434 -16 z m 331 391 q 320 394 309 395 l 288 397 q 279 397 268 394 l 257 391 l 235 391 q 169 371 126 311 q 82 251 82 191 q 82 128 119 89 q 156 49 216 49 q 266 49 304 64 q 343 79 350 99 q 357 120 357 184 q 357 252 347 378 q 333 383 331 384 z"},"1":{"x_min":0,"x_max":376,"ha":376,"o":"m 294 701 q 294 693 283 686 q 273 679 269 673 q 264 667 257 634 q 250 602 243 542 q 237 483 237 406 l 239 282 l 238 252 l 240 207 q 240 194 238 175 q 235 155 235 148 q 235 115 254 46 q 250 38 246 36 q 262 25 260 18 q 258 10 258 7 l 258 4 q 237 0 223 0 l 185 2 q 179 2 166 0 q 166 3 163 9 q 160 14 160 18 q 160 20 163 32 q 186 120 186 223 l 182 442 q 182 475 184 514 l 185 547 q 185 550 180 563 q 176 576 167 576 q 165 576 154 571 q 143 565 133 552 l 133 544 q 127 544 119 539 q 118 532 102 518 q 86 504 80 478 l 67 482 q 62 482 49 476 q 37 469 31 469 l 26 470 q 23 467 22 465 q 21 462 20 462 q 19 462 13 473 q 8 484 8 491 q 8 496 10 499 q 34 511 43 528 q 44 533 46 540 q 48 547 48 549 l 47 552 q 62 558 68 558 q 70 558 80 556 q 81 555 82 555 q 83 555 89 560 q 94 564 115 576 q 137 588 145 596 q 215 683 221 683 q 225 683 226 677 q 247 704 291 710 l 294 702 z"},"5":{"x_min":0,"x_max":501,"ha":501,"o":"m 446 663 q 437 636 431 616 q 424 596 408 596 l 404 596 q 403 601 392 604 q 381 608 375 612 q 369 615 364 615 q 360 615 350 613 q 341 610 335 610 q 323 619 302 619 l 288 616 q 271 613 254 613 l 191 615 q 172 615 147 611 q 125 567 125 514 q 125 512 127 493 q 130 474 130 445 l 130 444 q 130 440 138 435 q 146 430 155 430 l 202 431 q 312 431 369 384 q 426 336 426 245 q 426 138 361 67 q 297 -3 164 -3 q 129 -3 105 2 q 81 8 79 8 q 78 8 72 6 q 47 25 47 40 q 47 48 57 67 q 67 86 101 92 q 105 86 112 80 q 120 75 120 72 q 124 71 135 64 q 146 57 149 57 l 153 58 q 160 58 167 52 q 174 46 178 46 l 181 46 q 197 42 224 42 q 306 42 344 93 q 381 144 381 211 q 381 293 335 339 q 289 385 206 385 q 168 385 123 369 q 77 353 60 353 q 60 368 69 393 q 77 419 79 430 q 87 430 93 437 q 87 434 85 434 q 81 434 81 439 q 81 443 85 459 q 99 519 99 571 l 96 596 l 97 611 q 97 619 96 631 q 94 644 94 648 q 94 662 103 674 q 112 686 121 686 q 125 686 130 680 q 135 675 138 673 q 141 671 177 666 q 213 661 264 661 q 293 661 347 665 q 401 669 404 675 l 410 675 l 430 676 q 443 676 446 663 z"}}}
